<svg width="945" height="567" viewBox="0 0 945 567" fill="none" xmlns="http://www.w3.org/2000/svg">
<path fill-rule="evenodd" clip-rule="evenodd" d="M323 50C319.686 50 317 52.6863 317 56V79.5204L232.287 79.5208H179.018C173.771 79.5208 169.518 83.7741 169.518 89.0208V120.023C149.541 121.215 128.999 126.65 108.335 136.226C89.6786 144.871 70.8746 156.899 52.4376 171.969C21.1737 197.532 1.98764 222.736 1.18446 223.798C-0.394822 225.892 -0.394822 228.734 1.18446 230.828C1.98764 231.887 21.1737 257.091 52.4376 282.654C70.8746 297.727 89.6786 309.752 108.335 318.397C109.391 318.886 110.445 319.364 111.5 319.832V472C111.5 477.247 115.753 481.5 121 481.5H204.5V526C204.5 531.247 208.753 535.5 214 535.5H478V561C478 564.314 480.686 567 484 567H785C788.314 567 791 564.314 791 561V492C791 488.686 788.314 486 785 486H484C480.686 486 478 488.686 478 492V520.5H219.5V476C219.5 470.753 215.247 466.5 210 466.5H126.5V325.762C143.9 331.803 161.12 334.854 177.89 334.854C179.455 334.854 181.025 334.828 182.598 334.775V372.763C182.598 378.01 186.851 382.263 192.098 382.263H226.432V413.826C226.432 419.073 230.686 423.326 235.932 423.326H316V452C316 455.314 318.686 458 322 458H785C788.314 458 791 455.314 791 452V383C791 379.686 788.314 377 785 377H322C318.686 377 316 379.686 316 383V408.326H241.432V376.763C241.432 371.517 237.179 367.263 231.932 367.263H197.598V333.479C213.974 331.217 230.667 326.171 247.445 318.397C266.098 309.752 284.906 297.727 303.34 282.654C310.793 276.56 317.56 270.487 323.555 264.756H360.072V288.995C360.072 294.241 364.325 298.495 369.572 298.495H401V346C401 349.314 403.686 352 407 352H785C788.314 352 791 349.314 791 346V277C791 273.686 788.314 271 785 271H407C403.686 271 401 273.686 401 277V283.495H375.072V259.256C375.072 254.01 370.818 249.756 365.572 249.756H338.357C348.424 238.936 354.161 231.397 354.593 230.828C356.175 228.734 356.175 225.892 354.593 223.798C354.174 223.242 348.723 216.079 339.143 205.714H367.572L490 205.714V237C490 240.314 492.686 243 496 243H785C788.314 243 791 240.314 791 237V168C791 164.686 788.314 162 785 162H496C492.686 162 490 164.686 490 168V190.714L367.571 190.714H324.438C318.227 184.736 311.161 178.364 303.34 171.969C284.906 156.896 266.098 144.871 247.445 136.226C226.176 126.371 205.042 120.902 184.518 119.929V94.5208H232.287L317 94.5204V124C317 127.314 319.686 130 323 130H785C788.314 130 791 127.314 791 124V56C791 52.6863 788.314 50 785 50H323ZM177.893 322.94C203.938 322.94 245.462 314.371 295.386 273.555C312.37 259.616 327.925 244.13 341.844 227.312C327.865 210.429 312.238 194.885 295.181 180.896C267.669 158.447 224.992 131.686 177.896 131.686C151.851 131.686 110.324 140.252 60.4002 181.071C43.4161 195.01 27.8579 210.493 13.9391 227.312C27.918 244.197 43.5484 259.741 60.6077 273.73C88.1174 296.18 130.794 322.94 177.893 322.94ZM102.635 227.312C102.635 187.124 136.329 154.543 177.893 154.543C219.436 154.59 253.1 187.142 253.148 227.312C253.148 267.502 219.454 300.083 177.893 300.083C136.329 300.083 102.635 267.502 102.635 227.312ZM114.956 227.312C114.956 260.922 143.134 288.169 177.893 288.169C212.634 288.131 240.788 260.905 240.827 227.312C240.827 193.704 212.649 166.457 177.893 166.457C143.134 166.457 114.956 193.704 114.956 227.312ZM171.022 198.317C170.189 195.635 166.772 194.384 163.261 194.384C159.841 194.384 156.421 195.635 155.591 198.317L137.755 254.52C137.668 254.814 137.605 255.111 137.572 255.413C137.572 258.272 141.912 260.239 145.149 260.239C147.18 260.239 148.753 259.564 149.213 257.865L152.727 245.928H173.889L177.4 257.865C177.86 259.561 179.433 260.213 181.467 260.213C184.701 260.213 189.041 258.171 189.041 255.402C189.017 255.099 188.954 254.802 188.858 254.514L171.022 198.317ZM155.221 236.992L163.261 209.562L171.299 236.992H155.221ZM204.846 198.494C204.846 195.993 207.572 194.92 210.622 194.92C213.579 194.92 216.398 195.993 216.398 198.494V256.577C216.398 258.988 213.579 260.242 210.622 260.242C207.572 260.242 204.846 258.988 204.846 256.577V198.494Z" fill="url(#paint0_linear)"/>
<path d="M384.667 92.9639C384.667 92.2168 384.404 91.6455 383.876 91.25C383.349 90.8457 382.4 90.4238 381.029 89.9844C379.658 89.5361 378.572 89.0967 377.772 88.666C375.593 87.4883 374.503 85.9019 374.503 83.9067C374.503 82.8696 374.793 81.9468 375.373 81.1382C375.962 80.3208 376.801 79.6836 377.891 79.2266C378.99 78.7695 380.22 78.541 381.583 78.541C382.954 78.541 384.175 78.7915 385.248 79.2925C386.32 79.7847 387.15 80.4834 387.739 81.3887C388.337 82.2939 388.636 83.3223 388.636 84.4736H384.681C384.681 83.5947 384.404 82.9136 383.85 82.4302C383.296 81.938 382.519 81.6919 381.517 81.6919C380.55 81.6919 379.798 81.8984 379.262 82.3115C378.726 82.7158 378.458 83.252 378.458 83.9199C378.458 84.5439 378.77 85.0669 379.394 85.4888C380.027 85.9106 380.954 86.3062 382.176 86.6753C384.426 87.3521 386.065 88.1914 387.093 89.1934C388.122 90.1953 388.636 91.4434 388.636 92.9375C388.636 94.5986 388.007 95.9038 386.75 96.853C385.494 97.7935 383.802 98.2637 381.675 98.2637C380.198 98.2637 378.854 97.9956 377.641 97.4595C376.428 96.9146 375.5 96.1719 374.859 95.2314C374.226 94.291 373.91 93.2012 373.91 91.9619H377.878C377.878 94.0801 379.144 95.1392 381.675 95.1392C382.615 95.1392 383.349 94.9502 383.876 94.5723C384.404 94.1855 384.667 93.6494 384.667 92.9639ZM397.84 98.2637C395.748 98.2637 394.043 97.6221 392.725 96.3389C391.415 95.0557 390.761 93.3462 390.761 91.2104V90.8413C390.761 89.4087 391.037 88.1299 391.591 87.0049C392.145 85.8711 392.927 85.001 393.938 84.3945C394.957 83.7793 396.117 83.4717 397.418 83.4717C399.369 83.4717 400.903 84.0869 402.019 85.3174C403.144 86.5479 403.707 88.2925 403.707 90.5513V92.1069H394.623C394.746 93.0386 395.116 93.7856 395.731 94.3481C396.355 94.9106 397.141 95.1919 398.091 95.1919C399.558 95.1919 400.705 94.6602 401.532 93.5967L403.404 95.6929C402.832 96.5015 402.059 97.1343 401.083 97.5913C400.108 98.0396 399.027 98.2637 397.84 98.2637ZM397.405 86.5566C396.649 86.5566 396.034 86.8115 395.559 87.3213C395.094 87.8311 394.795 88.5605 394.663 89.5098H399.963V89.2065C399.945 88.3628 399.717 87.7124 399.277 87.2554C398.838 86.7896 398.214 86.5566 397.405 86.5566ZM410.103 98H406.28V77.75H410.103V98ZM414.496 98V86.5303H412.373V83.7354H414.496V82.5225C414.496 80.9229 414.953 79.6836 415.867 78.8047C416.789 77.917 418.077 77.4731 419.729 77.4731C420.257 77.4731 420.903 77.561 421.667 77.7368L421.628 80.6899C421.311 80.6108 420.925 80.5713 420.468 80.5713C419.035 80.5713 418.319 81.2437 418.319 82.5884V83.7354H421.153V86.5303H418.319V98H414.496ZM430.505 98V78.8047H436.411C438.099 78.8047 439.606 79.187 440.933 79.9517C442.269 80.7075 443.311 81.7886 444.058 83.1948C444.805 84.5923 445.178 86.1831 445.178 87.9673V88.8506C445.178 90.6348 444.809 92.2212 444.071 93.6099C443.341 94.9985 442.309 96.0752 440.973 96.8398C439.637 97.6045 438.129 97.9912 436.451 98H430.505ZM434.46 82.0083V94.8228H436.372C437.918 94.8228 439.101 94.3174 439.918 93.3066C440.735 92.2959 441.153 90.8501 441.17 88.9692V87.9541C441.17 86.0029 440.766 84.5264 439.958 83.5244C439.149 82.5137 437.967 82.0083 436.411 82.0083H434.46ZM452.036 98H448.213V83.7354H452.036V98ZM447.989 80.0439C447.989 79.4727 448.178 79.0024 448.555 78.6333C448.942 78.2642 449.465 78.0796 450.124 78.0796C450.775 78.0796 451.293 78.2642 451.68 78.6333C452.067 79.0024 452.26 79.4727 452.26 80.0439C452.26 80.624 452.062 81.0986 451.667 81.4678C451.28 81.8369 450.766 82.0215 450.124 82.0215C449.483 82.0215 448.964 81.8369 448.569 81.4678C448.182 81.0986 447.989 80.624 447.989 80.0439ZM463.653 98C463.477 97.6572 463.35 97.231 463.271 96.7212C462.348 97.7495 461.148 98.2637 459.671 98.2637C458.274 98.2637 457.114 97.8594 456.191 97.0508C455.277 96.2422 454.82 95.2227 454.82 93.9922C454.82 92.4805 455.378 91.3203 456.494 90.5117C457.619 89.7031 459.241 89.2944 461.359 89.2856H463.112V88.4683C463.112 87.8091 462.941 87.2817 462.598 86.8862C462.264 86.4907 461.733 86.293 461.003 86.293C460.361 86.293 459.856 86.4468 459.487 86.7544C459.127 87.062 458.946 87.4839 458.946 88.02H455.136C455.136 87.1938 455.391 86.4292 455.901 85.7261C456.411 85.0229 457.131 84.4736 458.063 84.0781C458.995 83.6738 460.041 83.4717 461.201 83.4717C462.959 83.4717 464.352 83.9155 465.38 84.8032C466.417 85.6821 466.936 86.9214 466.936 88.521V94.7041C466.944 96.0576 467.133 97.0815 467.503 97.7759V98H463.653ZM460.502 95.3501C461.065 95.3501 461.583 95.2271 462.058 94.981C462.532 94.7261 462.884 94.3877 463.112 93.9658V91.5137H461.689C459.781 91.5137 458.766 92.1729 458.643 93.4912L458.63 93.7153C458.63 94.1899 458.797 94.5811 459.131 94.8887C459.465 95.1963 459.922 95.3501 460.502 95.3501ZM469.509 90.7622C469.509 88.5737 470.027 86.8115 471.064 85.4756C472.11 84.1396 473.517 83.4717 475.283 83.4717C476.848 83.4717 478.065 84.0078 478.935 85.0801L479.093 83.7354H482.547V97.5254C482.547 98.7734 482.262 99.8589 481.69 100.782C481.128 101.705 480.332 102.408 479.304 102.891C478.276 103.375 477.072 103.616 475.692 103.616C474.646 103.616 473.626 103.405 472.633 102.983C471.64 102.57 470.889 102.034 470.379 101.375L472.066 99.0547C473.016 100.118 474.167 100.65 475.52 100.65C476.531 100.65 477.318 100.377 477.88 99.8325C478.443 99.2964 478.724 98.5317 478.724 97.5386V96.7739C477.845 97.7671 476.689 98.2637 475.257 98.2637C473.543 98.2637 472.154 97.5957 471.091 96.2598C470.036 94.915 469.509 93.1353 469.509 90.9204V90.7622ZM473.319 91.0391C473.319 92.3311 473.578 93.3462 474.097 94.0845C474.615 94.814 475.327 95.1787 476.232 95.1787C477.392 95.1787 478.223 94.7437 478.724 93.8735V87.875C478.214 87.0049 477.392 86.5698 476.259 86.5698C475.345 86.5698 474.624 86.9434 474.097 87.6904C473.578 88.4375 473.319 89.5537 473.319 91.0391ZM489.194 83.7354L489.313 85.3833C490.332 84.1089 491.699 83.4717 493.413 83.4717C494.925 83.4717 496.05 83.9155 496.788 84.8032C497.526 85.6909 497.904 87.0181 497.922 88.7847V98H494.112V88.877C494.112 88.0684 493.936 87.4839 493.584 87.1235C493.233 86.7544 492.648 86.5698 491.831 86.5698C490.758 86.5698 489.954 87.0269 489.418 87.9409V98H485.608V83.7354H489.194ZM500.429 90.7358C500.429 89.3208 500.701 88.0596 501.246 86.9521C501.791 85.8447 502.573 84.9878 503.593 84.3813C504.621 83.7749 505.812 83.4717 507.166 83.4717C509.09 83.4717 510.659 84.0605 511.872 85.2383C513.094 86.416 513.775 88.0156 513.916 90.0371L513.942 91.0127C513.942 93.2012 513.331 94.959 512.109 96.2861C510.888 97.6045 509.249 98.2637 507.192 98.2637C505.135 98.2637 503.492 97.6045 502.261 96.2861C501.04 94.9678 500.429 93.1748 500.429 90.9072V90.7358ZM504.239 91.0127C504.239 92.3662 504.494 93.4033 505.003 94.124C505.513 94.8359 506.243 95.1919 507.192 95.1919C508.115 95.1919 508.835 94.8403 509.354 94.1372C509.873 93.4253 510.132 92.2915 510.132 90.7358C510.132 89.4087 509.873 88.3804 509.354 87.6509C508.835 86.9214 508.106 86.5566 507.166 86.5566C506.234 86.5566 505.513 86.9214 505.003 87.6509C504.494 88.3716 504.239 89.4922 504.239 91.0127ZM524.214 94.0581C524.214 93.5923 523.981 93.2275 523.515 92.9639C523.058 92.6914 522.32 92.4497 521.301 92.2388C517.908 91.5269 516.212 90.0854 516.212 87.9146C516.212 86.6489 516.735 85.5942 517.781 84.7505C518.835 83.8979 520.211 83.4717 521.907 83.4717C523.718 83.4717 525.163 83.8979 526.244 84.7505C527.334 85.603 527.879 86.7104 527.879 88.0728H524.069C524.069 87.5278 523.893 87.0796 523.542 86.728C523.19 86.3677 522.641 86.1875 521.894 86.1875C521.252 86.1875 520.756 86.3325 520.404 86.6226C520.053 86.9126 519.877 87.2817 519.877 87.73C519.877 88.1519 520.075 88.4946 520.47 88.7583C520.874 89.0132 521.551 89.2373 522.5 89.4307C523.45 89.6152 524.249 89.8262 524.9 90.0635C526.912 90.8018 527.919 92.0806 527.919 93.8999C527.919 95.2007 527.361 96.2554 526.244 97.064C525.128 97.8638 523.687 98.2637 521.92 98.2637C520.725 98.2637 519.661 98.0527 518.73 97.6309C517.807 97.2002 517.082 96.6157 516.554 95.8774C516.027 95.1304 515.763 94.3262 515.763 93.4648H519.376C519.411 94.1416 519.661 94.6602 520.127 95.0205C520.593 95.3809 521.217 95.561 521.999 95.561C522.729 95.561 523.278 95.4248 523.647 95.1523C524.025 94.8711 524.214 94.5063 524.214 94.0581ZM535.146 80.2285V83.7354H537.585V86.5303H535.146V93.6494C535.146 94.1768 535.247 94.5547 535.449 94.7832C535.651 95.0117 536.038 95.126 536.609 95.126C537.031 95.126 537.404 95.0952 537.73 95.0337V97.9209C536.983 98.1494 536.213 98.2637 535.422 98.2637C532.751 98.2637 531.388 96.9146 531.336 94.2163V86.5303H529.253V83.7354H531.336V80.2285H535.146ZM543.928 98H540.105V83.7354H543.928V98ZM539.881 80.0439C539.881 79.4727 540.07 79.0024 540.448 78.6333C540.834 78.2642 541.357 78.0796 542.017 78.0796C542.667 78.0796 543.185 78.2642 543.572 78.6333C543.959 79.0024 544.152 79.4727 544.152 80.0439C544.152 80.624 543.954 81.0986 543.559 81.4678C543.172 81.8369 542.658 82.0215 542.017 82.0215C541.375 82.0215 540.856 81.8369 540.461 81.4678C540.074 81.0986 539.881 80.624 539.881 80.0439ZM553.212 95.1919C553.915 95.1919 554.486 94.9985 554.925 94.6118C555.365 94.2251 555.593 93.7109 555.611 93.0693H559.184C559.175 94.0361 558.911 94.9238 558.393 95.7324C557.874 96.5322 557.162 97.1562 556.257 97.6045C555.361 98.0439 554.367 98.2637 553.278 98.2637C551.238 98.2637 549.63 97.6177 548.452 96.3257C547.275 95.0249 546.686 93.2319 546.686 90.9468V90.6963C546.686 88.499 547.27 86.7456 548.439 85.436C549.608 84.1265 551.212 83.4717 553.251 83.4717C555.035 83.4717 556.464 83.9814 557.536 85.001C558.617 86.0117 559.166 87.3608 559.184 89.0483H555.611C555.593 88.3101 555.365 87.7124 554.925 87.2554C554.486 86.7896 553.906 86.5566 553.185 86.5566C552.298 86.5566 551.625 86.8818 551.168 87.5322C550.72 88.1738 550.496 89.2197 550.496 90.6699V91.0654C550.496 92.5332 550.72 93.5879 551.168 94.2295C551.616 94.8711 552.298 95.1919 553.212 95.1919ZM569.285 94.0581C569.285 93.5923 569.052 93.2275 568.586 92.9639C568.129 92.6914 567.391 92.4497 566.371 92.2388C562.979 91.5269 561.282 90.0854 561.282 87.9146C561.282 86.6489 561.805 85.5942 562.851 84.7505C563.906 83.8979 565.281 83.4717 566.978 83.4717C568.788 83.4717 570.234 83.8979 571.315 84.7505C572.405 85.603 572.95 86.7104 572.95 88.0728H569.14C569.14 87.5278 568.964 87.0796 568.612 86.728C568.261 86.3677 567.711 86.1875 566.964 86.1875C566.323 86.1875 565.826 86.3325 565.475 86.6226C565.123 86.9126 564.947 87.2817 564.947 87.73C564.947 88.1519 565.145 88.4946 565.541 88.7583C565.945 89.0132 566.622 89.2373 567.571 89.4307C568.52 89.6152 569.32 89.8262 569.97 90.0635C571.983 90.8018 572.989 92.0806 572.989 93.8999C572.989 95.2007 572.431 96.2554 571.315 97.064C570.199 97.8638 568.757 98.2637 566.991 98.2637C565.795 98.2637 564.732 98.0527 563.8 97.6309C562.877 97.2002 562.152 96.6157 561.625 95.8774C561.098 95.1304 560.834 94.3262 560.834 93.4648H564.446C564.481 94.1416 564.732 94.6602 565.198 95.0205C565.664 95.3809 566.288 95.561 567.07 95.561C567.799 95.561 568.349 95.4248 568.718 95.1523C569.096 94.8711 569.285 94.5063 569.285 94.0581ZM590.844 98C590.669 97.6572 590.541 97.231 590.462 96.7212C589.539 97.7495 588.339 98.2637 586.863 98.2637C585.465 98.2637 584.305 97.8594 583.382 97.0508C582.468 96.2422 582.011 95.2227 582.011 93.9922C582.011 92.4805 582.569 91.3203 583.686 90.5117C584.811 89.7031 586.432 89.2944 588.55 89.2856H590.304V88.4683C590.304 87.8091 590.132 87.2817 589.79 86.8862C589.456 86.4907 588.924 86.293 588.194 86.293C587.553 86.293 587.047 86.4468 586.678 86.7544C586.318 87.062 586.138 87.4839 586.138 88.02H582.328C582.328 87.1938 582.583 86.4292 583.092 85.7261C583.602 85.0229 584.323 84.4736 585.254 84.0781C586.186 83.6738 587.232 83.4717 588.392 83.4717C590.15 83.4717 591.543 83.9155 592.571 84.8032C593.608 85.6821 594.127 86.9214 594.127 88.521V94.7041C594.136 96.0576 594.325 97.0815 594.694 97.7759V98H590.844ZM587.693 95.3501C588.256 95.3501 588.775 95.2271 589.249 94.981C589.724 94.7261 590.075 94.3877 590.304 93.9658V91.5137H588.88C586.973 91.5137 585.958 92.1729 585.835 93.4912L585.821 93.7153C585.821 94.1899 585.988 94.5811 586.322 94.8887C586.656 95.1963 587.113 95.3501 587.693 95.3501ZM600.761 83.7354L600.879 85.3833C601.899 84.1089 603.266 83.4717 604.979 83.4717C606.491 83.4717 607.616 83.9155 608.354 84.8032C609.093 85.6909 609.471 87.0181 609.488 88.7847V98H605.678V88.877C605.678 88.0684 605.502 87.4839 605.151 87.1235C604.799 86.7544 604.215 86.5698 603.397 86.5698C602.325 86.5698 601.521 87.0269 600.985 87.9409V98H597.175V83.7354H600.761ZM611.995 90.7622C611.995 88.5386 612.492 86.7676 613.485 85.4492C614.487 84.1309 615.854 83.4717 617.585 83.4717C618.974 83.4717 620.121 83.9902 621.026 85.0273V77.75H624.849V98H621.408L621.224 96.4839C620.275 97.6704 619.053 98.2637 617.559 98.2637C615.88 98.2637 614.531 97.6045 613.511 96.2861C612.501 94.959 611.995 93.1177 611.995 90.7622ZM615.805 91.0391C615.805 92.375 616.038 93.3989 616.504 94.1108C616.97 94.8228 617.647 95.1787 618.534 95.1787C619.712 95.1787 620.543 94.6821 621.026 93.689V88.0596C620.551 87.0664 619.73 86.5698 618.561 86.5698C616.724 86.5698 615.805 88.0596 615.805 91.0391ZM642.283 90.9731H639.132V98H635.177V78.8047H642.309C644.576 78.8047 646.326 79.3101 647.556 80.3208C648.786 81.3315 649.402 82.7598 649.402 84.6055C649.402 85.915 649.116 87.0093 648.545 87.8882C647.982 88.7583 647.125 89.4526 645.974 89.9712L650.127 97.8154V98H645.882L642.283 90.9731ZM639.132 87.7695H642.322C643.315 87.7695 644.084 87.519 644.629 87.0181C645.174 86.5083 645.447 85.8096 645.447 84.9219C645.447 84.0166 645.187 83.3047 644.669 82.7861C644.159 82.2676 643.372 82.0083 642.309 82.0083H639.132V87.7695ZM658.936 98.2637C656.844 98.2637 655.139 97.6221 653.82 96.3389C652.511 95.0557 651.856 93.3462 651.856 91.2104V90.8413C651.856 89.4087 652.133 88.1299 652.687 87.0049C653.24 85.8711 654.023 85.001 655.033 84.3945C656.053 83.7793 657.213 83.4717 658.514 83.4717C660.465 83.4717 661.999 84.0869 663.115 85.3174C664.24 86.5479 664.802 88.2925 664.802 90.5513V92.1069H655.719C655.842 93.0386 656.211 93.7856 656.826 94.3481C657.45 94.9106 658.237 95.1919 659.186 95.1919C660.654 95.1919 661.801 94.6602 662.627 93.5967L664.499 95.6929C663.928 96.5015 663.154 97.1343 662.179 97.5913C661.203 98.0396 660.122 98.2637 658.936 98.2637ZM658.501 86.5566C657.745 86.5566 657.129 86.8115 656.655 87.3213C656.189 87.8311 655.89 88.5605 655.758 89.5098H661.058V89.2065C661.041 88.3628 660.812 87.7124 660.373 87.2554C659.933 86.7896 659.309 86.5566 658.501 86.5566ZM680.018 90.9995C680.018 93.1968 679.517 94.959 678.516 96.2861C677.522 97.6045 676.178 98.2637 674.481 98.2637C673.04 98.2637 671.875 97.7627 670.988 96.7607V103.484H667.178V83.7354H670.711L670.843 85.1328C671.766 84.0254 672.97 83.4717 674.455 83.4717C676.213 83.4717 677.579 84.1221 678.555 85.4229C679.531 86.7236 680.018 88.5166 680.018 90.8018V90.9995ZM676.208 90.7227C676.208 89.3955 675.971 88.3716 675.496 87.6509C675.031 86.9302 674.35 86.5698 673.453 86.5698C672.258 86.5698 671.436 87.0269 670.988 87.9409V93.7812C671.454 94.7217 672.284 95.1919 673.479 95.1919C675.299 95.1919 676.208 93.7021 676.208 90.7227ZM681.998 90.7358C681.998 89.3208 682.271 88.0596 682.816 86.9521C683.361 85.8447 684.143 84.9878 685.162 84.3813C686.191 83.7749 687.382 83.4717 688.735 83.4717C690.66 83.4717 692.229 84.0605 693.442 85.2383C694.663 86.416 695.344 88.0156 695.485 90.0371L695.511 91.0127C695.511 93.2012 694.901 94.959 693.679 96.2861C692.457 97.6045 690.818 98.2637 688.761 98.2637C686.705 98.2637 685.061 97.6045 683.831 96.2861C682.609 94.9678 681.998 93.1748 681.998 90.9072V90.7358ZM685.808 91.0127C685.808 92.3662 686.063 93.4033 686.573 94.124C687.083 94.8359 687.812 95.1919 688.761 95.1919C689.684 95.1919 690.405 94.8403 690.924 94.1372C691.442 93.4253 691.701 92.2915 691.701 90.7358C691.701 89.4087 691.442 88.3804 690.924 87.6509C690.405 86.9214 689.675 86.5566 688.735 86.5566C687.803 86.5566 687.083 86.9214 686.573 87.6509C686.063 88.3716 685.808 89.4922 685.808 91.0127ZM706.074 87.3081C705.555 87.2378 705.098 87.2026 704.703 87.2026C703.261 87.2026 702.316 87.6904 701.868 88.666V98H698.058V83.7354H701.657L701.763 85.436C702.527 84.1265 703.586 83.4717 704.94 83.4717C705.362 83.4717 705.757 83.5288 706.126 83.6431L706.074 87.3081ZM713.34 80.2285V83.7354H715.779V86.5303H713.34V93.6494C713.34 94.1768 713.441 94.5547 713.643 94.7832C713.846 95.0117 714.232 95.126 714.804 95.126C715.225 95.126 715.599 95.0952 715.924 95.0337V97.9209C715.177 98.1494 714.408 98.2637 713.617 98.2637C710.945 98.2637 709.583 96.9146 709.53 94.2163V86.5303H707.447V83.7354H709.53V80.2285H713.34ZM722.123 98H718.299V83.7354H722.123V98ZM718.075 80.0439C718.075 79.4727 718.264 79.0024 718.642 78.6333C719.029 78.2642 719.552 78.0796 720.211 78.0796C720.861 78.0796 721.38 78.2642 721.767 78.6333C722.153 79.0024 722.347 79.4727 722.347 80.0439C722.347 80.624 722.149 81.0986 721.754 81.4678C721.367 81.8369 720.853 82.0215 720.211 82.0215C719.569 82.0215 719.051 81.8369 718.655 81.4678C718.269 81.0986 718.075 80.624 718.075 80.0439ZM728.98 83.7354L729.099 85.3833C730.119 84.1089 731.485 83.4717 733.199 83.4717C734.711 83.4717 735.836 83.9155 736.574 84.8032C737.312 85.6909 737.69 87.0181 737.708 88.7847V98H733.898V88.877C733.898 88.0684 733.722 87.4839 733.371 87.1235C733.019 86.7544 732.434 86.5698 731.617 86.5698C730.545 86.5698 729.741 87.0269 729.204 87.9409V98H725.394V83.7354H728.98ZM740.255 90.7622C740.255 88.5737 740.773 86.8115 741.81 85.4756C742.856 84.1396 744.262 83.4717 746.029 83.4717C747.593 83.4717 748.811 84.0078 749.681 85.0801L749.839 83.7354H753.293V97.5254C753.293 98.7734 753.008 99.8589 752.436 100.782C751.874 101.705 751.078 102.408 750.05 102.891C749.022 103.375 747.818 103.616 746.438 103.616C745.392 103.616 744.372 103.405 743.379 102.983C742.386 102.57 741.634 102.034 741.125 101.375L742.812 99.0547C743.761 100.118 744.913 100.65 746.266 100.65C747.277 100.65 748.064 100.377 748.626 99.8325C749.189 99.2964 749.47 98.5317 749.47 97.5386V96.7739C748.591 97.7671 747.435 98.2637 746.003 98.2637C744.289 98.2637 742.9 97.5957 741.837 96.2598C740.782 94.915 740.255 93.1353 740.255 90.9204V90.7622ZM744.065 91.0391C744.065 92.3311 744.324 93.3462 744.842 94.0845C745.361 94.814 746.073 95.1787 746.978 95.1787C748.138 95.1787 748.969 94.7437 749.47 93.8735V87.875C748.96 87.0049 748.138 86.5698 747.005 86.5698C746.091 86.5698 745.37 86.9434 744.842 87.6904C744.324 88.4375 744.065 89.5537 744.065 91.0391Z" fill="white"/>
<path d="M367.012 416.866H359.287V425H355.951V405.805H368.146V408.494H359.287V414.203H367.012V416.866ZM374.094 425H370.89V404.75H374.094V425ZM384.076 425.264C382.046 425.264 380.398 424.626 379.132 423.352C377.876 422.069 377.247 420.364 377.247 418.237V417.841C377.247 416.417 377.52 415.147 378.065 414.031C378.618 412.906 379.392 412.032 380.385 411.408C381.378 410.784 382.485 410.472 383.707 410.472C385.65 410.472 387.148 411.091 388.203 412.331C389.266 413.57 389.798 415.323 389.798 417.591V418.883H380.477C380.574 420.061 380.965 420.992 381.65 421.678C382.345 422.363 383.215 422.706 384.261 422.706C385.729 422.706 386.924 422.113 387.847 420.926L389.574 422.574C389.003 423.427 388.238 424.09 387.28 424.565C386.331 425.031 385.263 425.264 384.076 425.264ZM383.694 413.042C382.815 413.042 382.103 413.35 381.558 413.965C381.022 414.581 380.679 415.438 380.53 416.536H386.634V416.299C386.564 415.227 386.278 414.418 385.777 413.873C385.276 413.319 384.582 413.042 383.694 413.042ZM398.778 425.264C396.748 425.264 395.1 424.626 393.834 423.352C392.578 422.069 391.949 420.364 391.949 418.237V417.841C391.949 416.417 392.222 415.147 392.767 414.031C393.32 412.906 394.094 412.032 395.087 411.408C396.08 410.784 397.187 410.472 398.409 410.472C400.351 410.472 401.85 411.091 402.905 412.331C403.968 413.57 404.5 415.323 404.5 417.591V418.883H395.179C395.276 420.061 395.667 420.992 396.352 421.678C397.047 422.363 397.917 422.706 398.963 422.706C400.431 422.706 401.626 422.113 402.549 420.926L404.276 422.574C403.704 423.427 402.94 424.09 401.982 424.565C401.033 425.031 399.965 425.264 398.778 425.264ZM398.396 413.042C397.517 413.042 396.805 413.35 396.26 413.965C395.724 414.581 395.381 415.438 395.232 416.536H401.336V416.299C401.266 415.227 400.98 414.418 400.479 413.873C399.978 413.319 399.284 413.042 398.396 413.042ZM411.213 407.268V410.735H413.731V413.108H411.213V421.071C411.213 421.616 411.318 422.012 411.529 422.258C411.749 422.495 412.135 422.614 412.689 422.614C413.058 422.614 413.432 422.57 413.81 422.482V424.96C413.08 425.163 412.377 425.264 411.7 425.264C409.239 425.264 408.009 423.906 408.009 421.19V413.108H405.662V410.735H408.009V407.268H411.213ZM435.831 418.013C435.831 420.228 435.334 421.99 434.341 423.299C433.357 424.609 431.999 425.264 430.267 425.264C428.597 425.264 427.297 424.662 426.365 423.458L426.207 425H423.306V404.75H426.51V412.106C427.433 411.017 428.677 410.472 430.241 410.472C431.981 410.472 433.348 411.118 434.341 412.41C435.334 413.702 435.831 415.508 435.831 417.828V418.013ZM432.627 417.736C432.627 416.189 432.355 415.029 431.81 414.255C431.265 413.482 430.474 413.095 429.437 413.095C428.048 413.095 427.073 413.702 426.51 414.915V420.794C427.081 422.034 428.066 422.653 429.463 422.653C430.465 422.653 431.239 422.28 431.783 421.533C432.328 420.786 432.61 419.656 432.627 418.145V417.736ZM447.25 425C447.109 424.728 446.986 424.284 446.881 423.668C445.861 424.732 444.613 425.264 443.137 425.264C441.704 425.264 440.535 424.855 439.63 424.038C438.725 423.22 438.272 422.209 438.272 421.005C438.272 419.485 438.835 418.32 439.96 417.512C441.093 416.694 442.711 416.286 444.811 416.286H446.775V415.35C446.775 414.611 446.569 414.022 446.156 413.583C445.743 413.135 445.114 412.911 444.271 412.911C443.541 412.911 442.943 413.095 442.478 413.464C442.012 413.825 441.779 414.286 441.779 414.849H438.575C438.575 414.066 438.835 413.337 439.353 412.66C439.872 411.975 440.575 411.438 441.463 411.052C442.359 410.665 443.357 410.472 444.455 410.472C446.125 410.472 447.457 410.894 448.45 411.737C449.443 412.572 449.953 413.75 449.979 415.271V421.704C449.979 422.987 450.159 424.011 450.52 424.776V425H447.25ZM443.73 422.693C444.363 422.693 444.956 422.539 445.51 422.231C446.072 421.924 446.494 421.511 446.775 420.992V418.303H445.048C443.862 418.303 442.97 418.509 442.372 418.922C441.775 419.335 441.476 419.92 441.476 420.676C441.476 421.291 441.678 421.783 442.082 422.152C442.495 422.513 443.045 422.693 443.73 422.693ZM456.942 425H453.739V404.75H456.942V425ZM469.166 425C469.025 424.728 468.902 424.284 468.797 423.668C467.777 424.732 466.529 425.264 465.052 425.264C463.62 425.264 462.451 424.855 461.546 424.038C460.64 423.22 460.188 422.209 460.188 421.005C460.188 419.485 460.75 418.32 461.875 417.512C463.009 416.694 464.626 416.286 466.727 416.286H468.691V415.35C468.691 414.611 468.485 414.022 468.071 413.583C467.658 413.135 467.03 412.911 466.186 412.911C465.457 412.911 464.859 413.095 464.393 413.464C463.927 413.825 463.695 414.286 463.695 414.849H460.491C460.491 414.066 460.75 413.337 461.269 412.66C461.787 411.975 462.49 411.438 463.378 411.052C464.275 410.665 465.272 410.472 466.371 410.472C468.041 410.472 469.372 410.894 470.365 411.737C471.359 412.572 471.868 413.75 471.895 415.271V421.704C471.895 422.987 472.075 424.011 472.435 424.776V425H469.166ZM465.646 422.693C466.279 422.693 466.872 422.539 467.425 422.231C467.988 421.924 468.41 421.511 468.691 420.992V418.303H466.964C465.778 418.303 464.885 418.509 464.288 418.922C463.69 419.335 463.391 419.92 463.391 420.676C463.391 421.291 463.593 421.783 463.998 422.152C464.411 422.513 464.96 422.693 465.646 422.693ZM478.423 410.735L478.515 412.383C479.57 411.109 480.954 410.472 482.668 410.472C485.639 410.472 487.15 412.172 487.203 415.574V425H484V415.758C484 414.853 483.802 414.185 483.406 413.754C483.02 413.315 482.382 413.095 481.495 413.095C480.203 413.095 479.24 413.68 478.607 414.849V425H475.404V410.735H478.423ZM496.539 422.706C497.339 422.706 498.003 422.473 498.53 422.007C499.057 421.542 499.339 420.966 499.374 420.28H502.393C502.358 421.168 502.081 421.999 501.562 422.772C501.044 423.537 500.341 424.143 499.453 424.591C498.565 425.04 497.607 425.264 496.579 425.264C494.584 425.264 493.002 424.618 491.833 423.326C490.664 422.034 490.079 420.25 490.079 417.973V417.644C490.079 415.473 490.659 413.737 491.82 412.436C492.98 411.126 494.562 410.472 496.566 410.472C498.262 410.472 499.642 410.968 500.705 411.961C501.778 412.946 502.34 414.242 502.393 415.851H499.374C499.339 415.033 499.057 414.361 498.53 413.833C498.012 413.306 497.348 413.042 496.539 413.042C495.502 413.042 494.702 413.42 494.14 414.176C493.577 414.923 493.292 416.062 493.283 417.591V418.105C493.283 419.652 493.56 420.808 494.114 421.572C494.676 422.328 495.485 422.706 496.539 422.706ZM508.42 425H505.216V410.735H508.42V425ZM505.019 407.031C505.019 406.539 505.172 406.13 505.48 405.805C505.796 405.479 506.245 405.317 506.825 405.317C507.405 405.317 507.853 405.479 508.17 405.805C508.486 406.13 508.644 406.539 508.644 407.031C508.644 407.514 508.486 407.918 508.17 408.244C507.853 408.56 507.405 408.718 506.825 408.718C506.245 408.718 505.796 408.56 505.48 408.244C505.172 407.918 505.019 407.514 505.019 407.031ZM515.093 410.735L515.185 412.383C516.24 411.109 517.624 410.472 519.338 410.472C522.309 410.472 523.821 412.172 523.873 415.574V425H520.67V415.758C520.67 414.853 520.472 414.185 520.077 413.754C519.69 413.315 519.053 413.095 518.165 413.095C516.873 413.095 515.911 413.68 515.278 414.849V425H512.074V410.735H515.093ZM526.789 417.762C526.789 415.547 527.308 413.781 528.345 412.462C529.391 411.135 530.775 410.472 532.498 410.472C534.124 410.472 535.403 411.039 536.334 412.172L536.479 410.735H539.366V424.565C539.366 426.437 538.782 427.914 537.613 428.995C536.453 430.076 534.884 430.616 532.906 430.616C531.861 430.616 530.837 430.396 529.835 429.957C528.842 429.526 528.086 428.959 527.567 428.256L529.083 426.332C530.068 427.5 531.28 428.085 532.722 428.085C533.785 428.085 534.625 427.795 535.24 427.215C535.855 426.644 536.163 425.8 536.163 424.684V423.721C535.24 424.75 534.009 425.264 532.471 425.264C530.801 425.264 529.435 424.6 528.371 423.273C527.317 421.946 526.789 420.109 526.789 417.762ZM529.98 418.039C529.98 419.472 530.27 420.601 530.85 421.427C531.439 422.245 532.252 422.653 533.289 422.653C534.581 422.653 535.539 422.1 536.163 420.992V414.717C535.556 413.636 534.607 413.095 533.315 413.095C532.26 413.095 531.439 413.513 530.85 414.348C530.27 415.183 529.98 416.413 529.98 418.039ZM558.316 425C558.175 424.728 558.052 424.284 557.947 423.668C556.927 424.732 555.679 425.264 554.202 425.264C552.77 425.264 551.601 424.855 550.696 424.038C549.79 423.22 549.338 422.209 549.338 421.005C549.338 419.485 549.9 418.32 551.025 417.512C552.159 416.694 553.776 416.286 555.877 416.286H557.841V415.35C557.841 414.611 557.635 414.022 557.221 413.583C556.808 413.135 556.18 412.911 555.336 412.911C554.607 412.911 554.009 413.095 553.543 413.464C553.077 413.825 552.845 414.286 552.845 414.849H549.641C549.641 414.066 549.9 413.337 550.419 412.66C550.937 411.975 551.64 411.438 552.528 411.052C553.425 410.665 554.422 410.472 555.521 410.472C557.191 410.472 558.522 410.894 559.515 411.737C560.509 412.572 561.018 413.75 561.045 415.271V421.704C561.045 422.987 561.225 424.011 561.585 424.776V425H558.316ZM554.796 422.693C555.429 422.693 556.022 422.539 556.575 422.231C557.138 421.924 557.56 421.511 557.841 420.992V418.303H556.114C554.928 418.303 554.035 418.509 553.438 418.922C552.84 419.335 552.541 419.92 552.541 420.676C552.541 421.291 552.743 421.783 553.148 422.152C553.561 422.513 554.11 422.693 554.796 422.693ZM567.573 410.735L567.665 412.383C568.72 411.109 570.104 410.472 571.818 410.472C574.789 410.472 576.3 412.172 576.353 415.574V425H573.15V415.758C573.15 414.853 572.952 414.185 572.556 413.754C572.17 413.315 571.532 413.095 570.645 413.095C569.353 413.095 568.39 413.68 567.757 414.849V425H564.554V410.735H567.573ZM579.229 417.762C579.229 415.565 579.739 413.803 580.759 412.476C581.778 411.14 583.145 410.472 584.859 410.472C586.371 410.472 587.592 410.999 588.524 412.054V404.75H591.727V425H588.827L588.669 423.523C587.711 424.684 586.432 425.264 584.832 425.264C583.163 425.264 581.809 424.591 580.772 423.247C579.744 421.902 579.229 420.074 579.229 417.762ZM582.433 418.039C582.433 419.489 582.71 420.623 583.264 421.44C583.826 422.249 584.621 422.653 585.65 422.653C586.959 422.653 587.917 422.069 588.524 420.9V414.809C587.935 413.667 586.986 413.095 585.676 413.095C584.639 413.095 583.839 413.508 583.277 414.334C582.714 415.152 582.433 416.387 582.433 418.039ZM606.827 405.805L612.364 420.518L617.888 405.805H622.199V425H618.877V418.672L619.207 410.208L613.538 425H611.151L605.496 410.221L605.825 418.672V425H602.503V405.805H606.827ZM634.568 425C634.427 424.728 634.304 424.284 634.199 423.668C633.179 424.732 631.931 425.264 630.454 425.264C629.022 425.264 627.853 424.855 626.948 424.038C626.042 423.22 625.59 422.209 625.59 421.005C625.59 419.485 626.152 418.32 627.277 417.512C628.411 416.694 630.028 416.286 632.129 416.286H634.093V415.35C634.093 414.611 633.887 414.022 633.473 413.583C633.06 413.135 632.432 412.911 631.588 412.911C630.859 412.911 630.261 413.095 629.795 413.464C629.329 413.825 629.096 414.286 629.096 414.849H625.893C625.893 414.066 626.152 413.337 626.671 412.66C627.189 411.975 627.892 411.438 628.78 411.052C629.677 410.665 630.674 410.472 631.773 410.472C633.443 410.472 634.774 410.894 635.767 411.737C636.761 412.572 637.27 413.75 637.297 415.271V421.704C637.297 422.987 637.477 424.011 637.837 424.776V425H634.568ZM631.048 422.693C631.68 422.693 632.274 422.539 632.827 422.231C633.39 421.924 633.812 421.511 634.093 420.992V418.303H632.366C631.18 418.303 630.287 418.509 629.69 418.922C629.092 419.335 628.793 419.92 628.793 420.676C628.793 421.291 628.995 421.783 629.4 422.152C629.813 422.513 630.362 422.693 631.048 422.693ZM643.825 410.735L643.917 412.383C644.972 411.109 646.356 410.472 648.07 410.472C651.041 410.472 652.552 412.172 652.605 415.574V425H649.401V415.758C649.401 414.853 649.204 414.185 648.808 413.754C648.421 413.315 647.784 413.095 646.897 413.095C645.605 413.095 644.642 413.68 644.009 414.849V425H640.806V410.735H643.825ZM664.604 425C664.464 424.728 664.341 424.284 664.235 423.668C663.216 424.732 661.968 425.264 660.491 425.264C659.059 425.264 657.89 424.855 656.984 424.038C656.079 423.22 655.626 422.209 655.626 421.005C655.626 419.485 656.189 418.32 657.314 417.512C658.448 416.694 660.065 416.286 662.165 416.286H664.13V415.35C664.13 414.611 663.923 414.022 663.51 413.583C663.097 413.135 662.469 412.911 661.625 412.911C660.895 412.911 660.298 413.095 659.832 413.464C659.366 413.825 659.133 414.286 659.133 414.849H655.93C655.93 414.066 656.189 413.337 656.707 412.66C657.226 411.975 657.929 411.438 658.817 411.052C659.713 410.665 660.711 410.472 661.809 410.472C663.479 410.472 664.811 410.894 665.804 411.737C666.797 412.572 667.307 413.75 667.333 415.271V421.704C667.333 422.987 667.514 424.011 667.874 424.776V425H664.604ZM661.084 422.693C661.717 422.693 662.31 422.539 662.864 422.231C663.427 421.924 663.849 421.511 664.13 420.992V418.303H662.403C661.216 418.303 660.324 418.509 659.726 418.922C659.129 419.335 658.83 419.92 658.83 420.676C658.83 421.291 659.032 421.783 659.436 422.152C659.85 422.513 660.399 422.693 661.084 422.693ZM670.328 417.762C670.328 415.547 670.847 413.781 671.884 412.462C672.93 411.135 674.314 410.472 676.037 410.472C677.663 410.472 678.942 411.039 679.873 412.172L680.018 410.735H682.905V424.565C682.905 426.437 682.321 427.914 681.152 428.995C679.992 430.076 678.423 430.616 676.445 430.616C675.4 430.616 674.376 430.396 673.374 429.957C672.381 429.526 671.625 428.959 671.106 428.256L672.622 426.332C673.607 427.5 674.82 428.085 676.261 428.085C677.324 428.085 678.164 427.795 678.779 427.215C679.394 426.644 679.702 425.8 679.702 424.684V423.721C678.779 424.75 677.549 425.264 676.01 425.264C674.341 425.264 672.974 424.6 671.91 423.273C670.856 421.946 670.328 420.109 670.328 417.762ZM673.519 418.039C673.519 419.472 673.809 420.601 674.389 421.427C674.978 422.245 675.791 422.653 676.828 422.653C678.12 422.653 679.078 422.1 679.702 420.992V414.717C679.095 413.636 678.146 413.095 676.854 413.095C675.799 413.095 674.978 413.513 674.389 414.348C673.809 415.183 673.519 416.413 673.519 418.039ZM692.69 425.264C690.66 425.264 689.012 424.626 687.746 423.352C686.489 422.069 685.861 420.364 685.861 418.237V417.841C685.861 416.417 686.133 415.147 686.678 414.031C687.232 412.906 688.005 412.032 688.999 411.408C689.992 410.784 691.099 410.472 692.321 410.472C694.263 410.472 695.762 411.091 696.816 412.331C697.88 413.57 698.412 415.323 698.412 417.591V418.883H689.091C689.188 420.061 689.579 420.992 690.264 421.678C690.958 422.363 691.829 422.706 692.875 422.706C694.342 422.706 695.538 422.113 696.46 420.926L698.188 422.574C697.616 423.427 696.852 424.09 695.894 424.565C694.944 425.031 693.876 425.264 692.69 425.264ZM692.308 413.042C691.429 413.042 690.717 413.35 690.172 413.965C689.636 414.581 689.293 415.438 689.144 416.536H695.248V416.299C695.177 415.227 694.892 414.418 694.391 413.873C693.89 413.319 693.195 413.042 692.308 413.042ZM704.122 410.735L704.215 412.225C705.217 411.056 706.588 410.472 708.328 410.472C710.235 410.472 711.54 411.201 712.243 412.66C713.281 411.201 714.74 410.472 716.62 410.472C718.194 410.472 719.363 410.907 720.127 411.777C720.901 412.647 721.296 413.93 721.314 415.626V425H718.11V415.719C718.11 414.813 717.912 414.15 717.517 413.728C717.121 413.306 716.467 413.095 715.553 413.095C714.823 413.095 714.225 413.293 713.76 413.688C713.303 414.075 712.982 414.585 712.797 415.218L712.81 425H709.607V415.613C709.563 413.935 708.706 413.095 707.036 413.095C705.753 413.095 704.843 413.618 704.307 414.664V425H701.103V410.735H704.122ZM731.085 425.264C729.055 425.264 727.407 424.626 726.141 423.352C724.884 422.069 724.256 420.364 724.256 418.237V417.841C724.256 416.417 724.528 415.147 725.073 414.031C725.627 412.906 726.4 412.032 727.394 411.408C728.387 410.784 729.494 410.472 730.716 410.472C732.658 410.472 734.157 411.091 735.212 412.331C736.275 413.57 736.807 415.323 736.807 417.591V418.883H727.486C727.583 420.061 727.974 420.992 728.659 421.678C729.354 422.363 730.224 422.706 731.27 422.706C732.737 422.706 733.933 422.113 734.856 420.926L736.583 422.574C736.011 423.427 735.247 424.09 734.289 424.565C733.339 425.031 732.272 425.264 731.085 425.264ZM730.703 413.042C729.824 413.042 729.112 413.35 728.567 413.965C728.031 414.581 727.688 415.438 727.539 416.536H733.643V416.299C733.572 415.227 733.287 414.418 732.786 413.873C732.285 413.319 731.59 413.042 730.703 413.042ZM742.478 410.735L742.57 412.383C743.625 411.109 745.009 410.472 746.723 410.472C749.694 410.472 751.205 412.172 751.258 415.574V425H748.055V415.758C748.055 414.853 747.857 414.185 747.461 413.754C747.075 413.315 746.437 413.095 745.55 413.095C744.258 413.095 743.295 413.68 742.663 414.849V425H739.459V410.735H742.478ZM758.749 407.268V410.735H761.267V413.108H758.749V421.071C758.749 421.616 758.854 422.012 759.065 422.258C759.285 422.495 759.672 422.614 760.225 422.614C760.594 422.614 760.968 422.57 761.346 422.482V424.96C760.616 425.163 759.913 425.264 759.237 425.264C756.776 425.264 755.545 423.906 755.545 421.19V413.108H753.198V410.735H755.545V407.268H758.749Z" fill="white"/>
<path d="M552.191 209H548.869V200.47H540.287V209H536.951V189.805H540.287V197.794H548.869V189.805H552.191V209ZM559.445 209H556.241V194.735H559.445V209ZM556.043 191.031C556.043 190.539 556.197 190.13 556.505 189.805C556.821 189.479 557.269 189.317 557.849 189.317C558.429 189.317 558.878 189.479 559.194 189.805C559.511 190.13 559.669 190.539 559.669 191.031C559.669 191.514 559.511 191.918 559.194 192.244C558.878 192.56 558.429 192.718 557.849 192.718C557.269 192.718 556.821 192.56 556.505 192.244C556.197 191.918 556.043 191.514 556.043 191.031ZM562.585 201.762C562.585 199.547 563.103 197.781 564.14 196.462C565.186 195.135 566.57 194.472 568.293 194.472C569.919 194.472 571.198 195.039 572.129 196.172L572.275 194.735H575.162V208.565C575.162 210.437 574.577 211.914 573.408 212.995C572.248 214.076 570.679 214.616 568.702 214.616C567.656 214.616 566.632 214.396 565.63 213.957C564.637 213.526 563.881 212.959 563.362 212.256L564.879 210.332C565.863 211.5 567.076 212.085 568.517 212.085C569.581 212.085 570.42 211.795 571.035 211.215C571.65 210.644 571.958 209.8 571.958 208.684V207.721C571.035 208.75 569.805 209.264 568.267 209.264C566.597 209.264 565.23 208.6 564.167 207.273C563.112 205.946 562.585 204.109 562.585 201.762ZM565.775 202.039C565.775 203.472 566.065 204.601 566.645 205.427C567.234 206.245 568.047 206.653 569.084 206.653C570.376 206.653 571.334 206.1 571.958 204.992V198.717C571.352 197.636 570.402 197.095 569.11 197.095C568.056 197.095 567.234 197.513 566.645 198.348C566.065 199.183 565.775 200.413 565.775 202.039ZM581.822 196.291C582.868 195.078 584.19 194.472 585.79 194.472C588.831 194.472 590.373 196.208 590.417 199.679V209H587.214V199.798C587.214 198.813 586.998 198.119 586.568 197.715C586.146 197.302 585.522 197.095 584.696 197.095C583.412 197.095 582.454 197.667 581.822 198.809V209H578.618V188.75H581.822V196.291ZM600.149 209.264C598.119 209.264 596.471 208.626 595.205 207.352C593.948 206.069 593.32 204.364 593.32 202.237V201.841C593.32 200.417 593.592 199.147 594.137 198.031C594.691 196.906 595.465 196.032 596.458 195.408C597.451 194.784 598.558 194.472 599.78 194.472C601.722 194.472 603.221 195.091 604.276 196.331C605.339 197.57 605.871 199.323 605.871 201.591V202.883H596.55C596.647 204.061 597.038 204.992 597.723 205.678C598.418 206.363 599.288 206.706 600.334 206.706C601.801 206.706 602.997 206.113 603.92 204.926L605.647 206.574C605.075 207.427 604.311 208.09 603.353 208.565C602.404 209.031 601.336 209.264 600.149 209.264ZM599.767 197.042C598.888 197.042 598.176 197.35 597.631 197.965C597.095 198.581 596.752 199.438 596.603 200.536H602.707V200.299C602.636 199.227 602.351 198.418 601.85 197.873C601.349 197.319 600.654 197.042 599.767 197.042ZM616.038 197.662C615.616 197.592 615.181 197.557 614.732 197.557C613.265 197.557 612.276 198.119 611.766 199.244V209H608.562V194.735H611.621L611.7 196.331C612.474 195.091 613.546 194.472 614.917 194.472C615.374 194.472 615.752 194.533 616.051 194.656L616.038 197.662ZM639.535 189.805V202.632C639.535 204.671 638.88 206.289 637.571 207.484C636.27 208.67 634.534 209.264 632.363 209.264C630.166 209.264 628.421 208.679 627.129 207.51C625.838 206.333 625.192 204.702 625.192 202.619V189.805H628.514V202.646C628.514 203.929 628.839 204.909 629.489 205.585C630.14 206.262 631.098 206.601 632.363 206.601C634.93 206.601 636.213 205.247 636.213 202.54V189.805H639.535ZM647.013 191.268V194.735H649.531V197.108H647.013V205.071C647.013 205.616 647.118 206.012 647.329 206.258C647.549 206.495 647.935 206.614 648.489 206.614C648.858 206.614 649.232 206.57 649.61 206.482V208.96C648.88 209.163 648.177 209.264 647.5 209.264C645.039 209.264 643.809 207.906 643.809 205.19V197.108H641.462V194.735H643.809V191.268H647.013ZM655.597 209H652.394V194.735H655.597V209ZM652.196 191.031C652.196 190.539 652.35 190.13 652.657 189.805C652.974 189.479 653.422 189.317 654.002 189.317C654.582 189.317 655.03 189.479 655.347 189.805C655.663 190.13 655.821 190.539 655.821 191.031C655.821 191.514 655.663 191.918 655.347 192.244C655.03 192.56 654.582 192.718 654.002 192.718C653.422 192.718 652.974 192.56 652.657 192.244C652.35 191.918 652.196 191.514 652.196 191.031ZM662.706 209H659.502V188.75H662.706V209ZM669.814 209H666.61V194.735H669.814V209ZM666.412 191.031C666.412 190.539 666.566 190.13 666.874 189.805C667.19 189.479 667.638 189.317 668.219 189.317C668.799 189.317 669.247 189.479 669.563 189.805C669.88 190.13 670.038 190.539 670.038 191.031C670.038 191.514 669.88 191.918 669.563 192.244C669.247 192.56 668.799 192.718 668.219 192.718C667.638 192.718 667.19 192.56 666.874 192.244C666.566 191.918 666.412 191.514 666.412 191.031ZM676.935 206.442H684.529V209H672.954V206.904L680.191 197.319H673.086V194.735H684.252V196.766L676.935 206.442ZM695.816 209C695.676 208.728 695.553 208.284 695.447 207.668C694.428 208.732 693.18 209.264 691.703 209.264C690.27 209.264 689.101 208.855 688.196 208.038C687.291 207.22 686.838 206.209 686.838 205.005C686.838 203.485 687.401 202.32 688.526 201.512C689.66 200.694 691.277 200.286 693.377 200.286H695.342V199.35C695.342 198.611 695.135 198.022 694.722 197.583C694.309 197.135 693.681 196.911 692.837 196.911C692.107 196.911 691.51 197.095 691.044 197.464C690.578 197.825 690.345 198.286 690.345 198.849H687.142C687.142 198.066 687.401 197.337 687.919 196.66C688.438 195.975 689.141 195.438 690.029 195.052C690.925 194.665 691.923 194.472 693.021 194.472C694.691 194.472 696.023 194.894 697.016 195.737C698.009 196.572 698.519 197.75 698.545 199.271V205.704C698.545 206.987 698.725 208.011 699.086 208.776V209H695.816ZM692.296 206.693C692.929 206.693 693.522 206.539 694.076 206.231C694.639 205.924 695.06 205.511 695.342 204.992V202.303H693.615C692.428 202.303 691.536 202.509 690.938 202.922C690.341 203.335 690.042 203.92 690.042 204.676C690.042 205.291 690.244 205.783 690.648 206.152C691.061 206.513 691.611 206.693 692.296 206.693ZM706.115 191.268V194.735H708.633V197.108H706.115V205.071C706.115 205.616 706.22 206.012 706.431 206.258C706.651 206.495 707.038 206.614 707.592 206.614C707.961 206.614 708.334 206.57 708.712 206.482V208.96C707.983 209.163 707.279 209.264 706.603 209.264C704.142 209.264 702.911 207.906 702.911 205.19V197.108H700.565V194.735H702.911V191.268H706.115ZM714.7 209H711.496V194.735H714.7V209ZM711.298 191.031C711.298 190.539 711.452 190.13 711.76 189.805C712.076 189.479 712.524 189.317 713.104 189.317C713.685 189.317 714.133 189.479 714.449 189.805C714.766 190.13 714.924 190.539 714.924 191.031C714.924 191.514 714.766 191.918 714.449 192.244C714.133 192.56 713.685 192.718 713.104 192.718C712.524 192.718 712.076 192.56 711.76 192.244C711.452 191.918 711.298 191.514 711.298 191.031ZM717.8 201.736C717.8 200.338 718.077 199.082 718.631 197.965C719.184 196.84 719.962 195.979 720.964 195.381C721.966 194.775 723.117 194.472 724.418 194.472C726.343 194.472 727.903 195.091 729.098 196.331C730.303 197.57 730.953 199.213 731.05 201.261L731.063 202.013C731.063 203.419 730.79 204.676 730.245 205.783C729.709 206.891 728.936 207.748 727.925 208.354C726.923 208.96 725.763 209.264 724.445 209.264C722.432 209.264 720.819 208.596 719.606 207.26C718.402 205.915 717.8 204.126 717.8 201.894V201.736ZM721.004 202.013C721.004 203.48 721.307 204.632 721.913 205.467C722.52 206.293 723.364 206.706 724.445 206.706C725.526 206.706 726.365 206.284 726.963 205.44C727.569 204.597 727.872 203.362 727.872 201.736C727.872 200.294 727.56 199.152 726.936 198.308C726.321 197.464 725.482 197.042 724.418 197.042C723.372 197.042 722.542 197.46 721.927 198.295C721.311 199.121 721.004 200.36 721.004 202.013ZM736.945 194.735L737.037 196.383C738.092 195.109 739.476 194.472 741.19 194.472C744.161 194.472 745.672 196.172 745.725 199.574V209H742.522V199.758C742.522 198.853 742.324 198.185 741.928 197.754C741.542 197.315 740.904 197.095 740.017 197.095C738.725 197.095 737.762 197.68 737.129 198.849V209H733.926V194.735H736.945Z" fill="white"/>
<path d="M513.975 312.056C513.975 311.212 513.676 310.562 513.079 310.105C512.49 309.648 511.422 309.187 509.875 308.721C508.328 308.255 507.098 307.736 506.183 307.165C504.434 306.066 503.56 304.634 503.56 302.867C503.56 301.32 504.188 300.046 505.445 299.044C506.711 298.042 508.35 297.541 510.363 297.541C511.699 297.541 512.89 297.787 513.935 298.279C514.981 298.771 515.803 299.475 516.401 300.389C516.998 301.294 517.297 302.3 517.297 303.408H513.975C513.975 302.406 513.659 301.624 513.026 301.061C512.402 300.49 511.505 300.204 510.336 300.204C509.246 300.204 508.398 300.437 507.792 300.903C507.194 301.369 506.895 302.019 506.895 302.854C506.895 303.557 507.221 304.146 507.871 304.621C508.521 305.086 509.594 305.543 511.088 305.992C512.582 306.431 513.782 306.937 514.687 307.508C515.592 308.07 516.256 308.721 516.678 309.459C517.1 310.188 517.31 311.045 517.31 312.03C517.31 313.629 516.695 314.904 515.465 315.853C514.243 316.793 512.582 317.264 510.481 317.264C509.093 317.264 507.814 317.009 506.645 316.499C505.485 315.98 504.579 315.269 503.929 314.363C503.287 313.458 502.967 312.403 502.967 311.199H506.302C506.302 312.289 506.662 313.133 507.383 313.73C508.104 314.328 509.137 314.627 510.481 314.627C511.642 314.627 512.512 314.394 513.092 313.928C513.681 313.454 513.975 312.83 513.975 312.056ZM526.409 317.264C524.379 317.264 522.731 316.626 521.466 315.352C520.209 314.069 519.58 312.364 519.58 310.237V309.841C519.58 308.417 519.853 307.147 520.398 306.031C520.951 304.906 521.725 304.032 522.718 303.408C523.711 302.784 524.819 302.472 526.04 302.472C527.983 302.472 529.481 303.091 530.536 304.331C531.599 305.57 532.131 307.323 532.131 309.591V310.883H522.81C522.907 312.061 523.298 312.992 523.984 313.678C524.678 314.363 525.548 314.706 526.594 314.706C528.062 314.706 529.257 314.113 530.18 312.926L531.907 314.574C531.336 315.427 530.571 316.09 529.613 316.565C528.664 317.031 527.596 317.264 526.409 317.264ZM526.027 305.042C525.148 305.042 524.436 305.35 523.891 305.965C523.355 306.581 523.012 307.438 522.863 308.536H528.967V308.299C528.897 307.227 528.611 306.418 528.11 305.873C527.609 305.319 526.915 305.042 526.027 305.042ZM542.298 305.662C541.876 305.592 541.441 305.557 540.993 305.557C539.525 305.557 538.536 306.119 538.026 307.244V317H534.823V302.735H537.881L537.96 304.331C538.734 303.091 539.806 302.472 541.177 302.472C541.634 302.472 542.012 302.533 542.311 302.656L542.298 305.662ZM549.788 312.939L552.807 302.735H556.117L551.173 317H548.391L543.408 302.735H546.73L549.788 312.939ZM561.735 317H558.531V302.735H561.735V317ZM558.334 299.031C558.334 298.539 558.487 298.13 558.795 297.805C559.111 297.479 559.56 297.317 560.14 297.317C560.72 297.317 561.168 297.479 561.484 297.805C561.801 298.13 561.959 298.539 561.959 299.031C561.959 299.514 561.801 299.918 561.484 300.244C561.168 300.56 560.72 300.718 560.14 300.718C559.56 300.718 559.111 300.56 558.795 300.244C558.487 299.918 558.334 299.514 558.334 299.031ZM571.295 314.706C572.095 314.706 572.759 314.473 573.286 314.007C573.813 313.542 574.095 312.966 574.13 312.28H577.149C577.114 313.168 576.837 313.999 576.318 314.772C575.8 315.537 575.097 316.143 574.209 316.591C573.321 317.04 572.363 317.264 571.335 317.264C569.34 317.264 567.758 316.618 566.589 315.326C565.42 314.034 564.835 312.25 564.835 309.973V309.644C564.835 307.473 565.415 305.737 566.576 304.436C567.736 303.126 569.318 302.472 571.322 302.472C573.018 302.472 574.398 302.968 575.461 303.961C576.534 304.946 577.096 306.242 577.149 307.851H574.13C574.095 307.033 573.813 306.361 573.286 305.833C572.767 305.306 572.104 305.042 571.295 305.042C570.258 305.042 569.458 305.42 568.896 306.176C568.333 306.923 568.048 308.062 568.039 309.591V310.105C568.039 311.652 568.316 312.808 568.87 313.572C569.432 314.328 570.241 314.706 571.295 314.706ZM586.05 317.264C584.02 317.264 582.372 316.626 581.106 315.352C579.849 314.069 579.221 312.364 579.221 310.237V309.841C579.221 308.417 579.493 307.147 580.038 306.031C580.592 304.906 581.365 304.032 582.359 303.408C583.352 302.784 584.459 302.472 585.681 302.472C587.623 302.472 589.122 303.091 590.176 304.331C591.24 305.57 591.772 307.323 591.772 309.591V310.883H582.451C582.548 312.061 582.939 312.992 583.624 313.678C584.319 314.363 585.189 314.706 586.235 314.706C587.702 314.706 588.898 314.113 589.821 312.926L591.548 314.574C590.976 315.427 590.212 316.09 589.254 316.565C588.304 317.031 587.237 317.264 586.05 317.264ZM585.668 305.042C584.789 305.042 584.077 305.35 583.532 305.965C582.996 306.581 582.653 307.438 582.504 308.536H588.608V308.299C588.537 307.227 588.252 306.418 587.751 305.873C587.25 305.319 586.555 305.042 585.668 305.042ZM617.023 307.903C617.023 309.784 616.698 311.437 616.047 312.86C615.397 314.275 614.465 315.365 613.252 316.13C612.048 316.886 610.659 317.264 609.086 317.264C607.531 317.264 606.142 316.886 604.92 316.13C603.707 315.365 602.767 314.28 602.099 312.874C601.44 311.467 601.106 309.846 601.097 308.009V306.928C601.097 305.056 601.427 303.403 602.086 301.971C602.754 300.538 603.69 299.444 604.894 298.688C606.107 297.923 607.495 297.541 609.06 297.541C610.624 297.541 612.009 297.919 613.213 298.675C614.426 299.422 615.362 300.503 616.021 301.918C616.68 303.324 617.014 304.963 617.023 306.835V307.903ZM613.687 306.901C613.687 304.774 613.283 303.144 612.474 302.01C611.675 300.876 610.536 300.31 609.06 300.31C607.618 300.31 606.489 300.876 605.672 302.01C604.863 303.135 604.45 304.73 604.432 306.796V307.903C604.432 310.013 604.841 311.643 605.658 312.794C606.485 313.946 607.627 314.521 609.086 314.521C610.563 314.521 611.697 313.959 612.488 312.834C613.287 311.709 613.687 310.065 613.687 307.903V306.901ZM632.727 310.013C632.727 312.219 632.226 313.981 631.224 315.299C630.222 316.609 628.877 317.264 627.19 317.264C625.625 317.264 624.373 316.75 623.432 315.721V322.484H620.229V302.735H623.182L623.314 304.186C624.254 303.043 625.533 302.472 627.15 302.472C628.89 302.472 630.253 303.122 631.237 304.423C632.23 305.715 632.727 307.512 632.727 309.815V310.013ZM629.536 309.736C629.536 308.312 629.251 307.183 628.679 306.348C628.117 305.513 627.308 305.095 626.254 305.095C624.944 305.095 624.004 305.636 623.432 306.717V313.045C624.012 314.152 624.962 314.706 626.28 314.706C627.299 314.706 628.095 314.297 628.666 313.48C629.246 312.654 629.536 311.406 629.536 309.736ZM639.663 299.268V302.735H642.182V305.108H639.663V313.071C639.663 313.616 639.769 314.012 639.98 314.258C640.2 314.495 640.586 314.614 641.14 314.614C641.509 314.614 641.883 314.57 642.261 314.482V316.96C641.531 317.163 640.828 317.264 640.151 317.264C637.69 317.264 636.46 315.906 636.46 313.19V305.108H634.113V302.735H636.46V299.268H639.663ZM648.248 317H645.045V302.735H648.248V317ZM644.847 299.031C644.847 298.539 645.001 298.13 645.308 297.805C645.625 297.479 646.073 297.317 646.653 297.317C647.233 297.317 647.681 297.479 647.998 297.805C648.314 298.13 648.472 298.539 648.472 299.031C648.472 299.514 648.314 299.918 647.998 300.244C647.681 300.56 647.233 300.718 646.653 300.718C646.073 300.718 645.625 300.56 645.308 300.244C645.001 299.918 644.847 299.514 644.847 299.031ZM654.961 302.735L655.053 304.225C656.055 303.056 657.426 302.472 659.167 302.472C661.074 302.472 662.379 303.201 663.082 304.66C664.119 303.201 665.578 302.472 667.459 302.472C669.032 302.472 670.201 302.907 670.966 303.777C671.739 304.647 672.135 305.93 672.152 307.626V317H668.949V307.719C668.949 306.813 668.751 306.15 668.355 305.728C667.96 305.306 667.305 305.095 666.391 305.095C665.662 305.095 665.064 305.293 664.598 305.688C664.141 306.075 663.82 306.585 663.636 307.218L663.649 317H660.445V307.613C660.401 305.935 659.544 305.095 657.875 305.095C656.591 305.095 655.682 305.618 655.146 306.664V317H651.942V302.735H654.961ZM679.05 317H675.846V302.735H679.05V317ZM675.648 299.031C675.648 298.539 675.802 298.13 676.11 297.805C676.426 297.479 676.874 297.317 677.454 297.317C678.034 297.317 678.483 297.479 678.799 297.805C679.116 298.13 679.274 298.539 679.274 299.031C679.274 299.514 679.116 299.918 678.799 300.244C678.483 300.56 678.034 300.718 677.454 300.718C676.874 300.718 676.426 300.56 676.11 300.244C675.802 299.918 675.648 299.514 675.648 299.031ZM686.171 314.442H693.765V317H682.19V314.904L689.427 305.319H682.321V302.735H693.488V304.766L686.171 314.442ZM705.052 317C704.912 316.728 704.788 316.284 704.683 315.668C703.663 316.732 702.415 317.264 700.939 317.264C699.506 317.264 698.337 316.855 697.432 316.038C696.527 315.22 696.074 314.209 696.074 313.005C696.074 311.485 696.637 310.32 697.762 309.512C698.895 308.694 700.513 308.286 702.613 308.286H704.578V307.35C704.578 306.611 704.371 306.022 703.958 305.583C703.545 305.135 702.916 304.911 702.073 304.911C701.343 304.911 700.746 305.095 700.28 305.464C699.814 305.825 699.581 306.286 699.581 306.849H696.377C696.377 306.066 696.637 305.337 697.155 304.66C697.674 303.975 698.377 303.438 699.265 303.052C700.161 302.665 701.159 302.472 702.257 302.472C703.927 302.472 705.259 302.894 706.252 303.737C707.245 304.572 707.755 305.75 707.781 307.271V313.704C707.781 314.987 707.961 316.011 708.322 316.776V317H705.052ZM701.532 314.693C702.165 314.693 702.758 314.539 703.312 314.231C703.874 313.924 704.296 313.511 704.578 312.992V310.303H702.85C701.664 310.303 700.772 310.509 700.174 310.922C699.577 311.335 699.278 311.92 699.278 312.676C699.278 313.291 699.48 313.783 699.884 314.152C700.297 314.513 700.847 314.693 701.532 314.693ZM715.351 299.268V302.735H717.869V305.108H715.351V313.071C715.351 313.616 715.456 314.012 715.667 314.258C715.887 314.495 716.274 314.614 716.827 314.614C717.196 314.614 717.57 314.57 717.948 314.482V316.96C717.218 317.163 716.515 317.264 715.839 317.264C713.378 317.264 712.147 315.906 712.147 313.19V305.108H709.8V302.735H712.147V299.268H715.351ZM723.936 317H720.732V302.735H723.936V317ZM720.534 299.031C720.534 298.539 720.688 298.13 720.996 297.805C721.312 297.479 721.76 297.317 722.34 297.317C722.92 297.317 723.369 297.479 723.685 297.805C724.001 298.13 724.16 298.539 724.16 299.031C724.16 299.514 724.001 299.918 723.685 300.244C723.369 300.56 722.92 300.718 722.34 300.718C721.76 300.718 721.312 300.56 720.996 300.244C720.688 299.918 720.534 299.514 720.534 299.031ZM727.036 309.736C727.036 308.338 727.313 307.082 727.867 305.965C728.42 304.84 729.198 303.979 730.2 303.381C731.202 302.775 732.353 302.472 733.654 302.472C735.579 302.472 737.139 303.091 738.334 304.331C739.538 305.57 740.189 307.213 740.285 309.261L740.299 310.013C740.299 311.419 740.026 312.676 739.481 313.783C738.945 314.891 738.172 315.748 737.161 316.354C736.159 316.96 734.999 317.264 733.68 317.264C731.668 317.264 730.055 316.596 728.842 315.26C727.638 313.915 727.036 312.126 727.036 309.894V309.736ZM730.24 310.013C730.24 311.48 730.543 312.632 731.149 313.467C731.756 314.293 732.599 314.706 733.68 314.706C734.762 314.706 735.601 314.284 736.199 313.44C736.805 312.597 737.108 311.362 737.108 309.736C737.108 308.294 736.796 307.152 736.172 306.308C735.557 305.464 734.718 305.042 733.654 305.042C732.608 305.042 731.778 305.46 731.162 306.295C730.547 307.121 730.24 308.36 730.24 310.013ZM746.181 302.735L746.273 304.383C747.328 303.109 748.712 302.472 750.426 302.472C753.397 302.472 754.908 304.172 754.961 307.574V317H751.757V307.758C751.757 306.853 751.56 306.185 751.164 305.754C750.777 305.315 750.14 305.095 749.253 305.095C747.961 305.095 746.998 305.68 746.365 306.849V317H743.162V302.735H746.181Z" fill="white"/>
<path d="M523.984 531.056C523.984 530.212 523.685 529.562 523.087 529.105C522.499 528.648 521.431 528.187 519.884 527.721C518.337 527.255 517.106 526.736 516.192 526.165C514.443 525.066 513.569 523.634 513.569 521.867C513.569 520.32 514.197 519.046 515.454 518.044C516.72 517.042 518.359 516.541 520.372 516.541C521.708 516.541 522.898 516.787 523.944 517.279C524.99 517.771 525.812 518.475 526.41 519.389C527.007 520.294 527.306 521.3 527.306 522.408H523.984C523.984 521.406 523.667 520.624 523.035 520.061C522.411 519.49 521.514 519.204 520.345 519.204C519.255 519.204 518.407 519.437 517.801 519.903C517.203 520.369 516.904 521.019 516.904 521.854C516.904 522.557 517.229 523.146 517.88 523.621C518.53 524.086 519.603 524.543 521.097 524.992C522.591 525.431 523.791 525.937 524.696 526.508C525.601 527.07 526.265 527.721 526.687 528.459C527.108 529.188 527.319 530.045 527.319 531.03C527.319 532.629 526.704 533.904 525.474 534.853C524.252 535.793 522.591 536.264 520.49 536.264C519.102 536.264 517.823 536.009 516.654 535.499C515.494 534.98 514.588 534.269 513.938 533.363C513.296 532.458 512.976 531.403 512.976 530.199H516.311C516.311 531.289 516.671 532.133 517.392 532.73C518.113 533.328 519.146 533.627 520.49 533.627C521.65 533.627 522.521 533.394 523.101 532.928C523.689 532.454 523.984 531.83 523.984 531.056ZM536.418 536.264C534.388 536.264 532.74 535.626 531.474 534.352C530.218 533.069 529.589 531.364 529.589 529.237V528.841C529.589 527.417 529.862 526.147 530.407 525.031C530.96 523.906 531.734 523.032 532.727 522.408C533.72 521.784 534.827 521.472 536.049 521.472C537.992 521.472 539.49 522.091 540.545 523.331C541.608 524.57 542.14 526.323 542.14 528.591V529.883H532.819C532.916 531.061 533.307 531.992 533.992 532.678C534.687 533.363 535.557 533.706 536.603 533.706C538.071 533.706 539.266 533.113 540.189 531.926L541.916 533.574C541.345 534.427 540.58 535.09 539.622 535.565C538.673 536.031 537.605 536.264 536.418 536.264ZM536.036 524.042C535.157 524.042 534.445 524.35 533.9 524.965C533.364 525.581 533.021 526.438 532.872 527.536H538.976V527.299C538.906 526.227 538.62 525.418 538.119 524.873C537.618 524.319 536.924 524.042 536.036 524.042ZM548.246 536H545.043V515.75H548.246V536ZM553.074 536V524.108H550.898V521.735H553.074V520.43C553.074 518.848 553.513 517.626 554.392 516.765C555.271 515.904 556.501 515.473 558.083 515.473C558.646 515.473 559.244 515.552 559.876 515.71L559.797 518.215C559.446 518.145 559.037 518.11 558.571 518.11C557.042 518.11 556.277 518.896 556.277 520.47V521.735H559.178V524.108H556.277V536H553.074ZM567.934 529.131H561.012V526.547H567.934V529.131ZM571.087 536V516.805H576.756C578.452 516.805 579.955 517.183 581.265 517.938C582.583 518.694 583.603 519.767 584.323 521.155C585.044 522.544 585.404 524.135 585.404 525.928V526.89C585.404 528.709 585.04 530.309 584.31 531.689C583.589 533.069 582.557 534.132 581.212 534.879C579.876 535.626 578.342 536 576.611 536H571.087ZM574.422 519.494V533.337H576.598C578.347 533.337 579.687 532.792 580.619 531.702C581.559 530.604 582.038 529.03 582.056 526.982V525.915C582.056 523.832 581.603 522.241 580.698 521.142C579.792 520.043 578.479 519.494 576.756 519.494H574.422ZM596.085 524.662C595.663 524.592 595.228 524.557 594.78 524.557C593.312 524.557 592.324 525.119 591.814 526.244V536H588.61V521.735H591.669L591.748 523.331C592.521 522.091 593.594 521.472 594.965 521.472C595.422 521.472 595.8 521.533 596.098 521.656L596.085 524.662ZM601.717 536H598.513V521.735H601.717V536ZM598.316 518.031C598.316 517.539 598.469 517.13 598.777 516.805C599.093 516.479 599.542 516.317 600.122 516.317C600.702 516.317 601.15 516.479 601.466 516.805C601.783 517.13 601.941 517.539 601.941 518.031C601.941 518.514 601.783 518.918 601.466 519.244C601.15 519.56 600.702 519.718 600.122 519.718C599.542 519.718 599.093 519.56 598.777 519.244C598.469 518.918 598.316 518.514 598.316 518.031ZM610.447 531.939L613.466 521.735H616.775L611.831 536H609.049L604.066 521.735H607.388L610.447 531.939ZM622.393 536H619.19V521.735H622.393V536ZM618.992 518.031C618.992 517.539 619.146 517.13 619.453 516.805C619.77 516.479 620.218 516.317 620.798 516.317C621.378 516.317 621.826 516.479 622.143 516.805C622.459 517.13 622.617 517.539 622.617 518.031C622.617 518.514 622.459 518.918 622.143 519.244C621.826 519.56 621.378 519.718 620.798 519.718C620.218 519.718 619.77 519.56 619.453 519.244C619.146 518.918 618.992 518.514 618.992 518.031ZM629.066 521.735L629.159 523.383C630.213 522.109 631.598 521.472 633.312 521.472C636.282 521.472 637.794 523.172 637.847 526.574V536H634.643V526.758C634.643 525.853 634.445 525.185 634.05 524.754C633.663 524.315 633.026 524.095 632.138 524.095C630.846 524.095 629.884 524.68 629.251 525.849V536H626.047V521.735H629.066ZM640.762 528.762C640.762 526.547 641.281 524.781 642.318 523.462C643.364 522.135 644.748 521.472 646.471 521.472C648.097 521.472 649.376 522.039 650.307 523.172L650.452 521.735H653.34V535.565C653.34 537.437 652.755 538.914 651.586 539.995C650.426 541.076 648.857 541.616 646.88 541.616C645.834 541.616 644.81 541.396 643.808 540.957C642.815 540.526 642.059 539.959 641.54 539.256L643.056 537.332C644.041 538.5 645.254 539.085 646.695 539.085C647.759 539.085 648.598 538.795 649.213 538.215C649.828 537.644 650.136 536.8 650.136 535.684V534.721C649.213 535.75 647.983 536.264 646.445 536.264C644.775 536.264 643.408 535.6 642.345 534.273C641.29 532.946 640.762 531.109 640.762 528.762ZM643.953 529.039C643.953 530.472 644.243 531.601 644.823 532.427C645.412 533.245 646.225 533.653 647.262 533.653C648.554 533.653 649.512 533.1 650.136 531.992V525.717C649.53 524.636 648.58 524.095 647.288 524.095C646.234 524.095 645.412 524.513 644.823 525.348C644.243 526.183 643.953 527.413 643.953 529.039ZM670.839 531.821L675.717 516.805H679.382L672.474 536H669.244L662.362 516.805H666.014L670.839 531.821ZM687.149 536.264C685.119 536.264 683.471 535.626 682.205 534.352C680.948 533.069 680.32 531.364 680.32 529.237V528.841C680.32 527.417 680.592 526.147 681.137 525.031C681.691 523.906 682.465 523.032 683.458 522.408C684.451 521.784 685.558 521.472 686.78 521.472C688.722 521.472 690.221 522.091 691.276 523.331C692.339 524.57 692.871 526.323 692.871 528.591V529.883H683.55C683.647 531.061 684.038 531.992 684.723 532.678C685.418 533.363 686.288 533.706 687.334 533.706C688.801 533.706 689.997 533.113 690.92 531.926L692.647 533.574C692.075 534.427 691.311 535.09 690.353 535.565C689.404 536.031 688.336 536.264 687.149 536.264ZM686.767 524.042C685.888 524.042 685.176 524.35 684.631 524.965C684.095 525.581 683.752 526.438 683.603 527.536H689.707V527.299C689.636 526.227 689.351 525.418 688.85 524.873C688.349 524.319 687.654 524.042 686.767 524.042ZM698.727 523.291C699.772 522.078 701.095 521.472 702.695 521.472C705.736 521.472 707.278 523.208 707.322 526.679V536H704.119V526.798C704.119 525.813 703.903 525.119 703.473 524.715C703.051 524.302 702.427 524.095 701.601 524.095C700.317 524.095 699.359 524.667 698.727 525.809V536H695.523V515.75H698.727V523.291ZM714.18 536H710.976V521.735H714.18V536ZM710.779 518.031C710.779 517.539 710.932 517.13 711.24 516.805C711.556 516.479 712.005 516.317 712.585 516.317C713.165 516.317 713.613 516.479 713.929 516.805C714.246 517.13 714.404 517.539 714.404 518.031C714.404 518.514 714.246 518.918 713.929 519.244C713.613 519.56 713.165 519.718 712.585 519.718C712.005 519.718 711.556 519.56 711.24 519.244C710.932 518.918 710.779 518.514 710.779 518.031ZM723.74 533.706C724.54 533.706 725.204 533.473 725.731 533.007C726.258 532.542 726.54 531.966 726.575 531.28H729.594C729.559 532.168 729.282 532.999 728.763 533.772C728.245 534.537 727.542 535.143 726.654 535.591C725.766 536.04 724.808 536.264 723.78 536.264C721.785 536.264 720.203 535.618 719.034 534.326C717.865 533.034 717.28 531.25 717.28 528.973V528.644C717.28 526.473 717.86 524.737 719.021 523.436C720.181 522.126 721.763 521.472 723.767 521.472C725.463 521.472 726.843 521.968 727.906 522.961C728.979 523.946 729.541 525.242 729.594 526.851H726.575C726.54 526.033 726.258 525.361 725.731 524.833C725.212 524.306 724.549 524.042 723.74 524.042C722.703 524.042 721.903 524.42 721.341 525.176C720.778 525.923 720.493 527.062 720.484 528.591V529.105C720.484 530.652 720.761 531.808 721.315 532.572C721.877 533.328 722.686 533.706 723.74 533.706ZM735.621 536H732.417V515.75H735.621V536ZM745.603 536.264C743.573 536.264 741.925 535.626 740.659 534.352C739.403 533.069 738.774 531.364 738.774 529.237V528.841C738.774 527.417 739.047 526.147 739.592 525.031C740.145 523.906 740.919 523.032 741.912 522.408C742.905 521.784 744.012 521.472 745.234 521.472C747.176 521.472 748.675 522.091 749.73 523.331C750.793 524.57 751.325 526.323 751.325 528.591V529.883H742.004C742.101 531.061 742.492 531.992 743.177 532.678C743.872 533.363 744.742 533.706 745.788 533.706C747.256 533.706 748.451 533.113 749.374 531.926L751.101 533.574C750.529 534.427 749.765 535.09 748.807 535.565C747.858 536.031 746.79 536.264 745.603 536.264ZM745.221 524.042C744.342 524.042 743.63 524.35 743.085 524.965C742.549 525.581 742.206 526.438 742.057 527.536H748.161V527.299C748.091 526.227 747.805 525.418 747.304 524.873C746.803 524.319 746.109 524.042 745.221 524.042ZM762.019 532.124C762.019 531.553 761.782 531.118 761.307 530.819C760.841 530.52 760.063 530.256 758.974 530.028C757.884 529.799 756.974 529.509 756.245 529.158C754.645 528.384 753.845 527.264 753.845 525.796C753.845 524.565 754.364 523.537 755.401 522.711C756.438 521.885 757.756 521.472 759.356 521.472C761.061 521.472 762.437 521.894 763.482 522.737C764.537 523.581 765.064 524.675 765.064 526.02H761.861C761.861 525.405 761.632 524.895 761.175 524.491C760.718 524.078 760.112 523.871 759.356 523.871C758.653 523.871 758.077 524.034 757.629 524.359C757.189 524.684 756.97 525.119 756.97 525.664C756.97 526.156 757.176 526.539 757.589 526.811C758.002 527.083 758.837 527.36 760.094 527.642C761.351 527.914 762.335 528.244 763.047 528.63C763.768 529.008 764.3 529.465 764.643 530.001C764.994 530.538 765.17 531.188 765.17 531.953C765.17 533.236 764.638 534.277 763.575 535.077C762.511 535.868 761.118 536.264 759.396 536.264C758.227 536.264 757.185 536.053 756.271 535.631C755.357 535.209 754.645 534.629 754.135 533.891C753.625 533.152 753.371 532.357 753.371 531.504H756.482C756.526 532.26 756.812 532.845 757.339 533.258C757.866 533.662 758.565 533.864 759.435 533.864C760.279 533.864 760.92 533.706 761.36 533.39C761.799 533.064 762.019 532.643 762.019 532.124Z" fill="white"/>
<defs>
<linearGradient id="paint0_linear" x1="210.621" y1="77.5309" x2="210.621" y2="473.964" gradientUnits="userSpaceOnUse">
<stop stop-color="#00EFD1"/>
<stop offset="1" stop-color="#00ACEA"/>
</linearGradient>
</defs>
</svg>
