<svg width="14" height="5756" viewBox="0 0 14 5756" fill="none" xmlns="http://www.w3.org/2000/svg">
<mask maskUnits="userSpaceOnUse" x="0" y="0" width="0" height="0" fill="black">
<rect fill="white" width="0" height="0"/>
</mask>
<path d="M7.45104 0.248959C7.1191 -0.0829864 6.5809 -0.0829864 6.24896 0.248959L0.839592 5.65833C0.507647 5.99027 0.507647 6.52846 0.839592 6.86041C1.17154 7.19235 1.70973 7.19235 2.04167 6.86041L6.85 2.05208L11.6583 6.86041C11.9903 7.19235 12.5285 7.19235 12.8604 6.86041C13.1924 6.52846 13.1924 5.99027 12.8604 5.65833L7.45104 0.248959ZM6.24896 5755.75C6.5809 5756.08 7.1191 5756.08 7.45104 5755.75L12.8604 5750.34C13.1924 5750.01 13.1924 5749.47 12.8604 5749.14C12.5285 5748.81 11.9903 5748.81 11.6583 5749.14L6.85 5753.95L2.04167 5749.14C1.70973 5748.81 1.17154 5748.81 0.839592 5749.14C0.507647 5749.47 0.507647 5750.01 0.839592 5750.34L6.24896 5755.75ZM6 0.85V3.60062H7.7V0.85L6 0.85ZM6 9.10186V14.6031H7.7V9.10186H6ZM6 20.1043L6 25.6056H7.7V20.1043H6ZM6 31.1068V36.6081H7.7V31.1068H6ZM6 42.1093V47.6106H7.7V42.1093H6ZM6 53.1118V58.6131H7.7V53.1118H6ZM6 64.1143L6 69.6155H7.7L7.7 64.1143H6ZM6 75.1168V80.618H7.7L7.7 75.1168H6ZM6 86.1193V91.6205H7.7V86.1193H6ZM6 97.1218V102.623H7.7V97.1218H6ZM6 108.124L6 113.625H7.7V108.124H6ZM6 119.127V124.628H7.7V119.127H6ZM6 130.129V135.63H7.7V130.129H6ZM6 141.132V146.633H7.7V141.132H6ZM6 152.134L6 157.635H7.7L7.7 152.134H6ZM6 163.137L6 168.638H7.7L7.7 163.137H6ZM6 174.139V179.64H7.7V174.139H6ZM6 185.142V190.643H7.7V185.142H6ZM6 196.144V201.645H7.7V196.144H6ZM6 207.147L6 212.648H7.7L7.7 207.147H6ZM6 218.149L6 223.65H7.7L7.7 218.149H6ZM6 229.151V234.653H7.7V229.151H6ZM6 240.154L6 245.655H7.7L7.7 240.154H6ZM6 251.156L6 256.658H7.7L7.7 251.156H6ZM6 262.159V267.66H7.7V262.159H6ZM6 273.161V278.663H7.7V273.161H6ZM6 284.164L6 289.665H7.7V284.164H6ZM6 295.166L6 300.668H7.7L7.7 295.166H6ZM6 306.169L6 311.67H7.7L7.7 306.169H6ZM6 317.171V322.673H7.7V317.171H6ZM6 328.174L6 333.675H7.7L7.7 328.174H6ZM6 339.176L6 344.678H7.7V339.176H6ZM6 350.179V355.68H7.7V350.179H6ZM6 361.181V366.683H7.7V361.181H6ZM6 372.184V377.685H7.7V372.184H6ZM6 383.186V388.688H7.7L7.7 383.186H6ZM6 394.189L6 399.69H7.7L7.7 394.189H6ZM6 405.191V410.693H7.7V405.191H6ZM6 416.194V421.695H7.7V416.194H6ZM6 427.196L6 432.698H7.7V427.196H6ZM6 438.199L6 443.7H7.7V438.199H6ZM6 449.201V454.703H7.7V449.201H6ZM6 460.204V465.705H7.7V460.204H6ZM6 471.206V476.708H7.7L7.7 471.206H6ZM6 482.209L6 487.71H7.7L7.7 482.209H6ZM6 493.211V498.713H7.7V493.211H6ZM6 504.214V509.715H7.7V504.214H6ZM6 515.216V520.718H7.7V515.216H6ZM6 526.219L6 531.72H7.7L7.7 526.219H6ZM6 537.221V542.723H7.7L7.7 537.221H6ZM6 548.224V553.725H7.7V548.224H6ZM6 559.226L6 564.727H7.7L7.7 559.226H6ZM6 570.229L6 575.73H7.7L7.7 570.229H6ZM6 581.231V586.732H7.7V581.231H6ZM6 592.234V597.735H7.7V592.234H6ZM6 603.236V608.737H7.7V603.236H6ZM6 614.238L6 619.74H7.7L7.7 614.238H6ZM6 625.241V630.742H7.7L7.7 625.241H6ZM6 636.243V641.745H7.7V636.243H6ZM6 647.246V652.747H7.7L7.7 647.246H6ZM6 658.248L6 663.749H7.7V658.248H6ZM6 669.251L6 674.752H7.7V669.251H6ZM6 680.253V685.754H7.7V680.253H6ZM6 691.256V696.757H7.7V691.256H6ZM6 702.258L6 707.759H7.7L7.7 702.258H6ZM6 713.26L6 718.762H7.7L7.7 713.26H6ZM6 724.263V729.764H7.7V724.263H6ZM6 735.265V740.767H7.7V735.265H6ZM6 746.268L6 751.769H7.7V746.268H6ZM6 757.27V762.771H7.7V757.27H6ZM6 768.273V773.774H7.7V768.273H6ZM6 779.275V784.776H7.7V779.275H6ZM6 790.278L6 795.779H7.7L7.7 790.278H6ZM6 801.28V806.781H7.7L7.7 801.28H6ZM6 812.282V817.784H7.7V812.282H6ZM6 823.285V828.786H7.7V823.285H6ZM6 834.287L6 839.788H7.7V834.287H6ZM6 845.29L6 850.791H7.7L7.7 845.29H6ZM6 856.292V861.793H7.7L7.7 856.292H6ZM6 867.295V872.796H7.7V867.295H6ZM6 878.297L6 883.798H7.7L7.7 878.297H6ZM6 889.299L6 894.801H7.7L7.7 889.299H6ZM6 900.302V905.803H7.7V900.302H6ZM6 911.304V916.806H7.7V911.304H6ZM6 922.307V927.808H7.7V922.307H6ZM6 933.309L6 938.81H7.7L7.7 933.309H6ZM6 944.312V949.813H7.7L7.7 944.312H6ZM6 955.314V960.815H7.7V955.314H6ZM6 966.317V971.818H7.7L7.7 966.317H6ZM6 977.319L6 982.82H7.7V977.319H6ZM6 988.321V993.823H7.7V988.321H6ZM6 999.324V1004.83H7.7V999.324H6ZM6 1010.33V1015.83H7.7V1010.33H6ZM6 1021.33L6 1026.83H7.7L7.7 1021.33H6ZM6 1032.33L6 1037.83H7.7L7.7 1032.33H6ZM6 1043.33V1048.83H7.7V1043.33H6ZM6 1054.34V1059.84H7.7V1054.34H6ZM6 1065.34L6 1070.84H7.7V1065.34H6ZM6 1076.34V1081.84H7.7V1076.34H6ZM6 1087.34V1092.84H7.7V1087.34H6ZM6 1098.35V1103.85H7.7V1098.35H6ZM6 1109.35L6 1114.85H7.7L7.7 1109.35H6ZM6 1120.35L6 1125.85H7.7L7.7 1120.35H6ZM6 1131.35V1136.85H7.7V1131.35H6ZM6 1142.36V1147.86H7.7V1142.36H6ZM6 1153.36L6 1158.86H7.7V1153.36H6ZM6 1164.36L6 1169.86H7.7L7.7 1164.36H6ZM6 1175.36V1180.86H7.7L7.7 1175.36H6ZM6 1186.37V1191.87H7.7V1186.37H6ZM6 1197.37V1202.87H7.7L7.7 1197.37H6ZM6 1208.37L6 1213.87H7.7L7.7 1208.37H6ZM6 1219.37V1224.87H7.7V1219.37H6ZM6 1230.38V1235.88H7.7V1230.38H6ZM6 1241.38V1246.88H7.7V1241.38H6ZM6 1252.38L6 1257.88H7.7L7.7 1252.38H6ZM6 1263.38V1268.88H7.7L7.7 1263.38H6ZM6 1274.38V1279.89H7.7V1274.38H6ZM6 1285.39V1290.89H7.7L7.7 1285.39H6ZM6 1296.39L6 1301.89H7.7V1296.39H6ZM6 1307.39L6 1312.89H7.7V1307.39H6ZM6 1318.39V1323.9H7.7V1318.39H6ZM6 1329.4V1334.9H7.7V1329.4H6ZM6 1340.4L6 1345.9H7.7L7.7 1340.4H6ZM6 1351.4L6 1356.9H7.7L7.7 1351.4H6ZM6 1362.4V1367.91H7.7V1362.4H6ZM6 1373.41V1378.91H7.7V1373.41H6ZM6 1384.41L6 1389.91H7.7V1384.41H6ZM6 1395.41L6 1400.91H7.7V1395.41H6ZM6 1406.41V1411.92H7.7V1406.41H6ZM6 1417.42V1422.92H7.7V1417.42H6ZM6 1428.42L6 1433.92H7.7L7.7 1428.42H6ZM6 1439.42L6 1444.92H7.7L7.7 1439.42H6ZM6 1450.42V1455.93H7.7V1450.42H6ZM6 1461.43V1466.93H7.7V1461.43H6ZM6 1472.43V1477.93H7.7V1472.43H6ZM6 1483.43L6 1488.93H7.7L7.7 1483.43H6ZM6 1494.43V1499.94H7.7L7.7 1494.43H6ZM6 1505.44V1510.94H7.7V1505.44H6ZM6 1516.44L6 1521.94H7.7L7.7 1516.44H6ZM6 1527.44L6 1532.94H7.7L7.7 1527.44H6ZM6 1538.44V1543.94H7.7V1538.44H6ZM6 1549.45V1554.95H7.7V1549.45H6ZM6 1560.45V1565.95H7.7V1560.45H6ZM6 1571.45L6 1576.95H7.7L7.7 1571.45H6ZM6 1582.45L6 1587.95H7.7L7.7 1582.45H6ZM6 1593.46V1598.96H7.7V1593.46H6ZM6 1604.46V1609.96H7.7L7.7 1604.46H6ZM6 1615.46L6 1620.96H7.7L7.7 1615.46H6ZM6 1626.46L6 1631.96H7.7V1626.46H6ZM6 1637.47V1642.97H7.7V1637.47H6ZM6 1648.47V1653.97H7.7V1648.47H6ZM6 1659.47L6 1664.97H7.7L7.7 1659.47H6ZM6 1670.47V1675.97H7.7L7.7 1670.47H6ZM6 1681.48V1686.98H7.7V1681.48H6ZM6 1692.48V1697.98H7.7V1692.48H6ZM6 1703.48L6 1708.98H7.7V1703.48H6ZM6 1714.48L6 1719.98H7.7V1714.48H6ZM6 1725.48V1730.99H7.7V1725.48H6ZM6 1736.49V1741.99H7.7V1736.49H6ZM6 1747.49L6 1752.99H7.7L7.7 1747.49H6ZM6 1758.49L6 1763.99H7.7L7.7 1758.49H6ZM6 1769.49V1775H7.7V1769.49H6ZM6 1780.5V1786H7.7V1780.5H6ZM6 1791.5L6 1797H7.7V1791.5H6ZM6 1802.5L6 1808H7.7L7.7 1802.5H6ZM6 1813.5V1819.01H7.7L7.7 1813.5H6ZM6 1824.51V1830.01H7.7V1824.51H6ZM6 1835.51V1841.01H7.7L7.7 1835.51H6ZM6 1846.51L6 1852.01H7.7L7.7 1846.51H6ZM6 1857.51L6 1863.02H7.7V1857.51H6ZM6 1868.52V1874.02H7.7V1868.52H6ZM6 1879.52V1885.02H7.7V1879.52H6ZM6 1890.52L6 1896.02H7.7L7.7 1890.52H6ZM6 1901.52V1907.03H7.7L7.7 1901.52H6ZM6 1912.53V1918.03H7.7V1912.53H6ZM6 1923.53L6 1929.03H7.7L7.7 1923.53H6ZM6 1934.53L6 1940.03H7.7L7.7 1934.53H6ZM6 1945.53V1951.04H7.7V1945.53H6ZM6 1956.54V1962.04H7.7V1956.54H6ZM6 1967.54V1973.04H7.7V1967.54H6ZM6 1978.54L6 1984.04H7.7L7.7 1978.54H6ZM6 1989.54L6 1995.04H7.7L7.7 1989.54H6ZM6 2000.55V2006.05H7.7V2000.55H6ZM6 2011.55V2017.05H7.7V2011.55H6ZM6 2022.55L6 2028.05H7.7V2022.55H6ZM6 2033.55L6 2039.05H7.7V2033.55H6ZM6 2044.56V2050.06H7.7V2044.56H6ZM6 2055.56V2061.06H7.7V2055.56H6ZM6 2066.56L6 2072.06H7.7L7.7 2066.56H6ZM6 2077.56L6 2083.06H7.7L7.7 2077.56H6ZM6 2088.57V2094.07H7.7V2088.57H6ZM6 2099.57V2105.07H7.7V2099.57H6ZM6 2110.57V2116.07H7.7V2110.57H6ZM6 2121.57L6 2127.07H7.7L7.7 2121.57H6ZM6 2132.58V2138.08H7.7L7.7 2132.58H6ZM6 2143.58V2149.08H7.7V2143.58H6ZM6 2154.58L6 2160.08H7.7L7.7 2154.58H6ZM6 2165.58L6 2171.08H7.7L7.7 2165.58H6ZM6 2176.59V2182.09H7.7V2176.59H6ZM6 2187.59V2193.09H7.7V2187.59H6ZM6 2198.59L6 2204.09H7.7V2198.59H6ZM6 2209.59L6 2215.09H7.7L7.7 2209.59H6ZM6 2220.59V2226.1H7.7L7.7 2220.59H6ZM6 2231.6V2237.1H7.7V2231.6H6ZM6 2242.6V2248.1H7.7L7.7 2242.6H6ZM6 2253.6L6 2259.1H7.7L7.7 2253.6H6ZM6 2264.6V2270.11H7.7V2264.6H6ZM6 2275.61V2281.11H7.7V2275.61H6ZM6 2286.61V2292.11H7.7V2286.61H6ZM6 2297.61L6 2303.11H7.7L7.7 2297.61H6ZM6 2308.61L6 2314.12H7.7L7.7 2308.61H6ZM6 2319.62V2325.12H7.7V2319.62H6ZM6 2330.62V2336.12H7.7V2330.62H6ZM6 2341.62L6 2347.12H7.7V2341.62H6ZM6 2352.62V2358.13H7.7V2352.62H6ZM6 2363.63V2369.13H7.7V2363.63H6ZM6 2374.63V2380.13H7.7V2374.63H6ZM6 2385.63L6 2391.13H7.7L7.7 2385.63H6ZM6 2396.63L6 2402.14H7.7L7.7 2396.63H6ZM6 2407.64V2413.14H7.7V2407.64H6ZM6 2418.64V2424.14H7.7V2418.64H6ZM6 2429.64V2435.14H7.7V2429.64H6ZM6 2440.64L6 2446.15H7.7L7.7 2440.64H6ZM6 2451.65V2457.15H7.7L7.7 2451.65H6ZM6 2462.65V2468.15H7.7V2462.65H6ZM6 2473.65L6 2479.15H7.7L7.7 2473.65H6ZM6 2484.65L6 2490.15H7.7L7.7 2484.65H6ZM6 2495.66V2501.16H7.7V2495.66H6ZM6 2506.66V2512.16H7.7V2506.66H6ZM6 2517.66L6 2523.16H7.7V2517.66H6ZM6 2528.66L6 2534.16H7.7L7.7 2528.66H6ZM6 2539.67V2545.17H7.7L7.7 2539.67H6ZM6 2550.67V2556.17H7.7V2550.67H6ZM6 2561.67L6 2567.17H7.7L7.7 2561.67H6ZM6 2572.67L6 2578.17H7.7L7.7 2572.67H6ZM6 2583.68V2589.18H7.7V2583.68H6ZM6 2594.68V2600.18H7.7V2594.68H6ZM6 2605.68V2611.18H7.7V2605.68H6ZM6 2616.68L6 2622.18H7.7L7.7 2616.68H6ZM6 2627.69L6 2633.19H7.7L7.7 2627.69H6ZM6 2638.69V2644.19H7.7V2638.69H6ZM6 2649.69V2655.19H7.7V2649.69H6ZM6 2660.69L6 2666.19H7.7V2660.69H6ZM6 2671.7V2677.2H7.7V2671.7H6ZM6 2682.7V2688.2H7.7V2682.7H6ZM6 2693.7V2699.2H7.7V2693.7H6ZM6 2704.7L6 2710.2H7.7L7.7 2704.7H6ZM6 2715.7V2721.21H7.7L7.7 2715.7H6ZM6 2726.71V2732.21H7.7V2726.71H6ZM6 2737.71V2743.21H7.7V2737.71H6ZM6 2748.71L6 2754.21H7.7V2748.71H6ZM6 2759.71L6 2765.22H7.7L7.7 2759.71H6ZM6 2770.72V2776.22H7.7L7.7 2770.72H6ZM6 2781.72V2787.22H7.7V2781.72H6ZM6 2792.72V2798.22H7.7L7.7 2792.72H6ZM6 2803.72L6 2809.23H7.7L7.7 2803.72H6ZM6 2814.73V2820.23H7.7V2814.73H6ZM6 2825.73V2831.23H7.7V2825.73H6ZM6 2836.73L6 2842.23H7.7V2836.73H6ZM6 2847.73L6 2853.24H7.7L7.7 2847.73H6ZM6 2858.74V2864.24H7.7L7.7 2858.74H6ZM6 2869.74V2875.24H7.7V2869.74H6ZM6 2880.74L6 2886.24H7.7L7.7 2880.74H6ZM6 2891.74L6 2897.25H7.7L7.7 2891.74H6ZM6 2902.75V2908.25H7.7V2902.75H6ZM6 2913.75V2919.25H7.7V2913.75H6ZM6 2924.75V2930.25H7.7V2924.75H6ZM6 2935.75L6 2941.25H7.7L7.7 2935.75H6ZM6 2946.76V2952.26H7.7L7.7 2946.76H6ZM6 2957.76V2963.26H7.7V2957.76H6ZM6 2968.76V2974.26H7.7V2968.76H6ZM6 2979.76L6 2985.26H7.7V2979.76H6ZM6 2990.77V2996.27H7.7V2990.77H6ZM6 3001.77V3007.27H7.7V3001.77H6ZM6 3012.77V3018.27H7.7V3012.77H6ZM6 3023.77L6 3029.27H7.7L7.7 3023.77H6ZM6 3034.78L6 3040.28H7.7L7.7 3034.78H6ZM6 3045.78V3051.28H7.7V3045.78H6ZM6 3056.78V3062.28H7.7V3056.78H6ZM6 3067.78L6 3073.28H7.7V3067.78H6ZM6 3078.79L6 3084.29H7.7L7.7 3078.79H6ZM6 3089.79V3095.29H7.7L7.7 3089.79H6ZM6 3100.79V3106.29H7.7V3100.79H6ZM6 3111.79V3117.29H7.7L7.7 3111.79H6ZM6 3122.8L6 3128.3H7.7L7.7 3122.8H6ZM6 3133.8V3139.3H7.7V3133.8H6ZM6 3144.8V3150.3H7.7V3144.8H6ZM6 3155.8L6 3161.3H7.7V3155.8H6ZM6 3166.8L6 3172.31H7.7L7.7 3166.8H6ZM6 3177.81V3183.31H7.7L7.7 3177.81H6ZM6 3188.81V3194.31H7.7V3188.81H6ZM6 3199.81L6 3205.31H7.7L7.7 3199.81H6ZM6 3210.81L6 3216.32H7.7L7.7 3210.81H6ZM6 3221.82V3227.32H7.7V3221.82H6ZM6 3232.82V3238.32H7.7V3232.82H6ZM6 3243.82V3249.32H7.7V3243.82H6ZM6 3254.82L6 3260.33H7.7L7.7 3254.82H6ZM6 3265.83V3271.33H7.7L7.7 3265.83H6ZM6 3276.83V3282.33H7.7V3276.83H6ZM6 3287.83V3293.33H7.7V3287.83H6ZM6 3298.83L6 3304.34H7.7V3298.83H6ZM6 3309.84L6 3315.34H7.7V3309.84H6ZM6 3320.84V3326.34H7.7V3320.84H6ZM6 3331.84V3337.34H7.7V3331.84H6ZM6 3342.84L6 3348.35H7.7L7.7 3342.84H6ZM6 3353.85L6 3359.35H7.7L7.7 3353.85H6ZM6 3364.85V3370.35H7.7V3364.85H6ZM6 3375.85V3381.35H7.7V3375.85H6ZM6 3386.85L6 3392.35H7.7V3386.85H6ZM6 3397.86L6 3403.36H7.7L7.7 3397.86H6ZM6 3408.86V3414.36H7.7L7.7 3408.86H6ZM6 3419.86V3425.36H7.7V3419.86H6ZM6 3430.86L6 3436.36H7.7L7.7 3430.86H6ZM6 3441.87L6 3447.37H7.7L7.7 3441.87H6ZM6 3452.87V3458.37H7.7V3452.87H6ZM6 3463.87V3469.37H7.7V3463.87H6ZM6 3474.87L6 3480.37H7.7V3474.87H6ZM6 3485.88L6 3491.38H7.7L7.7 3485.88H6ZM6 3496.88V3502.38H7.7L7.7 3496.88H6ZM6 3507.88V3513.38H7.7V3507.88H6ZM6 3518.88V3524.38H7.7L7.7 3518.88H6ZM6 3529.89L6 3535.39H7.7L7.7 3529.89H6ZM6 3540.89V3546.39H7.7V3540.89H6ZM6 3551.89V3557.39H7.7V3551.89H6ZM6 3562.89V3568.39H7.7V3562.89H6ZM6 3573.9L6 3579.4H7.7L7.7 3573.9H6ZM6 3584.9L6 3590.4H7.7L7.7 3584.9H6ZM6 3595.9V3601.4H7.7V3595.9H6ZM6 3606.9V3612.4H7.7V3606.9H6ZM6 3617.9L6 3623.41H7.7V3617.9H6ZM6 3628.91V3634.41H7.7V3628.91H6ZM6 3639.91V3645.41H7.7V3639.91H6ZM6 3650.91V3656.41H7.7V3650.91H6ZM6 3661.91L6 3667.42H7.7L7.7 3661.91H6ZM6 3672.92V3678.42H7.7L7.7 3672.92H6ZM6 3683.92V3689.42H7.7V3683.92H6ZM6 3694.92V3700.42H7.7V3694.92H6ZM6 3705.92L6 3711.43H7.7V3705.92H6ZM6 3716.93L6 3722.43H7.7L7.7 3716.93H6ZM6 3727.93V3733.43H7.7L7.7 3727.93H6ZM6 3738.93V3744.43H7.7V3738.93H6ZM6 3749.93L6 3755.44H7.7L7.7 3749.93H6ZM6 3760.94L6 3766.44H7.7L7.7 3760.94H6ZM6 3771.94V3777.44H7.7V3771.94H6ZM6 3782.94V3788.44H7.7V3782.94H6ZM6 3793.94V3799.45H7.7V3793.94H6ZM6 3804.95L6 3810.45H7.7L7.7 3804.95H6ZM6 3815.95V3821.45H7.7L7.7 3815.95H6ZM6 3826.95V3832.45H7.7V3826.95H6ZM6 3837.95L6 3843.45H7.7L7.7 3837.95H6ZM6 3848.96L6 3854.46H7.7L7.7 3848.96H6ZM6 3859.96V3865.46H7.7V3859.96H6ZM6 3870.96V3876.46H7.7V3870.96H6ZM6 3881.96V3887.46H7.7V3881.96H6ZM6 3892.97L6 3898.47H7.7L7.7 3892.97H6ZM6 3903.97V3909.47H7.7L7.7 3903.97H6ZM6 3914.97V3920.47H7.7V3914.97H6ZM6 3925.97V3931.47H7.7V3925.97H6ZM6 3936.98L6 3942.48H7.7V3936.98H6ZM6 3947.98V3953.48H7.7V3947.98H6ZM6 3958.98V3964.48H7.7V3958.98H6ZM6 3969.98V3975.48H7.7V3969.98H6ZM6 3980.99L6 3986.49H7.7L7.7 3980.99H6ZM6 3991.99V3997.49H7.7L7.7 3991.99H6ZM6 4002.99V4008.49H7.7V4002.99H6ZM6 4013.99V4019.49H7.7V4013.99H6ZM6 4025L6 4030.5H7.7V4025H6ZM6 4036L6 4041.5H7.7L7.7 4036H6ZM6 4047V4052.5H7.7L7.7 4047H6ZM6 4058V4063.5H7.7V4058H6ZM6 4069V4074.51H7.7L7.7 4069H6ZM6 4080.01L6 4085.51H7.7L7.7 4080.01H6ZM6 4091.01V4096.51H7.7V4091.01H6ZM6 4102.01V4107.51H7.7V4102.01H6ZM6 4113.02V4118.52H7.7V4113.02H6ZM6 4124.02L6 4129.52H7.7L7.7 4124.02H6ZM6 4135.02V4140.52H7.7L7.7 4135.02H6ZM6 4146.02V4151.53H7.7V4146.02H6ZM6 4157.03V4162.53H7.7L7.7 4157.03H6ZM6 4168.03L6 4173.53H7.7L7.7 4168.03H6ZM6 4179.03V4184.53H7.7V4179.03H6ZM6 4190.04V4195.54H7.7V4190.04H6ZM6 4201.04V4206.54H7.7V4201.04H6ZM6 4212.04L6 4217.54H7.7L7.7 4212.04H6ZM6 4223.04L6 4228.55H7.7L7.7 4223.04H6ZM6 4234.05V4239.55H7.7V4234.05H6ZM6 4245.05V4250.55H7.7V4245.05H6ZM6 4256.05L6 4261.56H7.7V4256.05H6ZM6 4267.06L6 4272.56H7.7V4267.06H6ZM6 4278.06V4283.56H7.7V4278.06H6ZM6 4289.06V4294.56H7.7V4289.06H6ZM6 4300.07L6 4305.57H7.7L7.7 4300.07H6ZM6 4311.07L6 4316.57H7.7L7.7 4311.07H6ZM6 4322.07V4327.57H7.7V4322.07H6ZM6 4333.07V4338.58H7.7V4333.07H6ZM6 4344.08L6 4349.58H7.7V4344.08H6ZM6 4355.08L6 4360.58H7.7V4355.08H6ZM6 4366.08V4371.58H7.7L7.7 4366.08H6ZM6 4377.09V4382.59H7.7V4377.09H6ZM6 4388.09V4393.59H7.7L7.7 4388.09H6ZM6 4399.09L6 4404.59H7.7L7.7 4399.09H6ZM6 4410.09V4415.6H7.7V4410.09H6ZM6 4421.1V4426.6H7.7V4421.1H6ZM6 4432.1V4437.6H7.7V4432.1H6ZM6 4443.1L6 4448.6H7.7L7.7 4443.1H6ZM6 4454.11V4459.61H7.7L7.7 4454.11H6ZM6 4465.11V4470.61H7.7V4465.11H6ZM6 4476.11V4481.61H7.7L7.7 4476.11H6ZM6 4487.12L6 4492.62H7.7L7.7 4487.12H6ZM6 4498.12V4503.62H7.7V4498.12H6ZM6 4509.12V4514.62H7.7V4509.12H6ZM6 4520.12V4525.63H7.7V4520.12H6ZM6 4531.13L6 4536.63H7.7L7.7 4531.13H6ZM6 4542.13L6 4547.63H7.7L7.7 4542.13H6ZM6 4553.13V4558.63H7.7V4553.13H6ZM6 4564.14V4569.64H7.7V4564.14H6ZM6 4575.14L6 4580.64H7.7V4575.14H6ZM6 4586.14L6 4591.64H7.7V4586.14H6ZM6 4597.14V4602.65H7.7V4597.14H6ZM6 4608.15V4613.65H7.7V4608.15H6ZM6 4619.15L6 4624.65H7.7L7.7 4619.15H6ZM6 4630.15L6 4635.65H7.7L7.7 4630.15H6ZM6 4641.16V4646.66H7.7V4641.16H6ZM6 4652.16V4657.66H7.7V4652.16H6ZM6 4663.16L6 4668.66H7.7V4663.16H6ZM6 4674.17L6 4679.67H7.7V4674.17H6ZM6 4685.17V4690.67H7.7L7.7 4685.17H6ZM6 4696.17V4701.67H7.7V4696.17H6ZM6 4707.17V4712.68H7.7L7.7 4707.17H6ZM6 4718.18L6 4723.68H7.7L7.7 4718.18H6ZM6 4729.18V4734.68H7.7V4729.18H6ZM6 4740.18V4745.68H7.7V4740.18H6ZM6 4751.19V4756.69H7.7V4751.19H6ZM6 4762.19L6 4767.69H7.7L7.7 4762.19H6ZM6 4773.19V4778.69H7.7L7.7 4773.19H6ZM6 4784.19V4789.7H7.7V4784.19H6ZM6 4795.2V4800.7H7.7L7.7 4795.2H6ZM6 4806.2L6 4811.7H7.7L7.7 4806.2H6ZM6 4817.2V4822.7H7.7V4817.2H6ZM6 4828.21V4833.71H7.7V4828.21H6ZM6 4839.21V4844.71H7.7V4839.21H6ZM6 4850.21L6 4855.71H7.7L7.7 4850.21H6ZM6 4861.21L6 4866.72H7.7L7.7 4861.21H6ZM6 4872.22V4877.72H7.7V4872.22H6ZM6 4883.22V4888.72H7.7V4883.22H6ZM6 4894.22L6 4899.73H7.7V4894.22H6ZM6 4905.23L6 4910.73H7.7V4905.23H6ZM6 4916.23V4921.73H7.7V4916.23H6ZM6 4927.23V4932.73H7.7V4927.23H6ZM6 4938.24L6 4943.74H7.7L7.7 4938.24H6ZM6 4949.24L6 4954.74H7.7L7.7 4949.24H6ZM6 4960.24V4965.74H7.7V4960.24H6ZM6 4971.24V4976.75H7.7V4971.24H6ZM6 4982.25L6 4987.75H7.7V4982.25H6ZM6 4993.25L6 4998.75H7.7V4993.25H6ZM6 5004.25V5009.75H7.7L7.7 5004.25H6ZM6 5015.26V5020.76H7.7V5015.26H6ZM6 5026.26V5031.76H7.7L7.7 5026.26H6ZM6 5037.26L6 5042.76H7.7L7.7 5037.26H6ZM6 5048.26V5053.77H7.7V5048.26H6ZM6 5059.27V5064.77H7.7V5059.27H6ZM6 5070.27V5075.77H7.7V5070.27H6ZM6 5081.27L6 5086.77H7.7L7.7 5081.27H6ZM6 5092.28V5097.78H7.7L7.7 5092.28H6ZM6 5103.28V5108.78H7.7V5103.28H6ZM6 5114.28V5119.78H7.7L7.7 5114.28H6ZM6 5125.29L6 5130.79H7.7L7.7 5125.29H6ZM6 5136.29V5141.79H7.7V5136.29H6ZM6 5147.29V5152.79H7.7V5147.29H6ZM6 5158.29V5163.8H7.7V5158.29H6ZM6 5169.3L6 5174.8H7.7L7.7 5169.3H6ZM6 5180.3L6 5185.8H7.7L7.7 5180.3H6ZM6 5191.3V5196.8H7.7V5191.3H6ZM6 5202.31V5207.81H7.7V5202.31H6ZM6 5213.31L6 5218.81H7.7V5213.31H6ZM6 5224.31L6 5229.81H7.7V5224.31H6ZM6 5235.31V5240.82H7.7V5235.31H6ZM6 5246.32V5251.82H7.7V5246.32H6ZM6 5257.32L6 5262.82H7.7L7.7 5257.32H6ZM6 5268.32L6 5273.82H7.7L7.7 5268.32H6ZM6 5279.33V5284.83H7.7V5279.33H6ZM6 5290.33V5295.83H7.7V5290.33H6ZM6 5301.33L6 5306.83H7.7V5301.33H6ZM6 5312.33L6 5317.84H7.7V5312.33H6ZM6 5323.34V5328.84H7.7L7.7 5323.34H6ZM6 5334.34V5339.84H7.7V5334.34H6ZM6 5345.34V5350.85H7.7L7.7 5345.34H6ZM6 5356.35L6 5361.85H7.7L7.7 5356.35H6ZM6 5367.35V5372.85H7.7V5367.35H6ZM6 5378.35V5383.85H7.7V5378.35H6ZM6 5389.36V5394.86H7.7V5389.36H6ZM6 5400.36L6 5405.86H7.7L7.7 5400.36H6ZM6 5411.36V5416.86H7.7L7.7 5411.36H6ZM6 5422.36V5427.87H7.7V5422.36H6ZM6 5433.37V5438.87H7.7L7.7 5433.37H6ZM6 5444.37L6 5449.87H7.7L7.7 5444.37H6ZM6 5455.37V5460.87H7.7V5455.37H6ZM6 5466.38V5471.88H7.7V5466.38H6ZM6 5477.38V5482.88H7.7V5477.38H6ZM6 5488.38L6 5493.88H7.7L7.7 5488.38H6ZM6 5499.38L6 5504.89H7.7L7.7 5499.38H6ZM6 5510.39V5515.89H7.7V5510.39H6ZM6 5521.39V5526.89H7.7V5521.39H6ZM6 5532.39L6 5537.9H7.7V5532.39H6ZM6 5543.4L6 5548.9H7.7V5543.4H6ZM6 5554.4V5559.9H7.7V5554.4H6ZM6 5565.4V5570.9H7.7V5565.4H6ZM6 5576.41L6 5581.91H7.7L7.7 5576.41H6ZM6 5587.41L6 5592.91H7.7L7.7 5587.41H6ZM6 5598.41V5603.91H7.7V5598.41H6ZM6 5609.41V5614.92H7.7V5609.41H6ZM6 5620.42L6 5625.92H7.7V5620.42H6ZM6 5631.42L6 5636.92H7.7V5631.42H6ZM6 5642.42V5647.92H7.7L7.7 5642.42H6ZM6 5653.43V5658.93H7.7V5653.43H6ZM6 5664.43V5669.93H7.7L7.7 5664.43H6ZM6 5675.43L6 5680.93H7.7L7.7 5675.43H6ZM6 5686.43V5691.94H7.7V5686.43H6ZM6 5697.44V5702.94H7.7V5697.44H6ZM6 5708.44V5713.94H7.7V5708.44H6ZM6 5719.44L6 5724.94H7.7L7.7 5719.44H6ZM6 5730.45V5735.95H7.7L7.7 5730.45H6ZM6 5741.45V5746.95H7.7V5741.45H6ZM6 5752.45V5755.15H7.7L7.7 5752.45H6Z" fill="#A0A0A0" fill-opacity="0.12" mask="url(#)"/>
</svg>
