<svg xmlns="http://www.w3.org/2000/svg" width="1366" height="310.469" viewBox="0 0 1366 310.469">
  <defs>
    <style>
      .cls-1 {
        fill: #2ec4df;
        fill-rule: evenodd;
      }
    </style>
  </defs>
  <path class="cls-1" d="M-70,489c3.049-53.745-1.41-93.588,15-115,45.329-59.149,175.636-39.007,386,23,173.736,51.21,296.053,103.74,439,98,69.5-2.791,195.509-33.324,311-61,175.15-41.973,301.36-5.758,324,18,3.02,3.168,16.48,18.987,23,35,4.89,12,7.88,25.922,8,43a164.052,164.052,0,0,1-1.73,26.034C1431,577.787,1430.1,591.164,1421,603c-6.87,8.942-16.74,17.88-27,17-17.99-1.542-26.86-31.4-34-45-51.21-97.526-362.868-20.409-584,3-222.886,23.6-476.2-82.607-686,26C52.082,623.629-23.918,668.237-61,640-86.5,620.586-74.631,570.642-70,489Z" transform="translate(0 -338.656)"/>
</svg>
