<svg xmlns="http://www.w3.org/2000/svg" width="1366" height="187.594" viewBox="0 0 1366 187.594">
  <defs>
    <style>
      .cls-1 {
        fill: #2ec4df;
        fill-rule: evenodd;
      }
    </style>
  </defs>
  <path class="cls-1" d="M1419,182c-29.38-28.006-44.37-41.8-58-48-73.41-33.4-213.15.189-254.84,11.341C987.386,177.117,877.621,190.282,798,196c-67.389,4.839-188.69-9.4-304-27C278.573,136.122,49.192,81.961-36,151c-8.78,7.115-17.251,21.585-24,37-22.085,50.444-12.5,113.051,5,117,9.313,2.1,19.432-12.719,26-21,43.947-55.408,134.272-69.695,251-67,151.167,3.49,352.407,30.717,461,36,74.962,3.647,177.379-2.924,280-15,138.06-16.246,247.61-43.372,364-13,72.94,19.035,105.27,54.193,121,34C1460.1,243.472,1443.13,205,1419,182Z" transform="translate(0 -117.594)"/>
</svg>
