<svg xmlns="http://www.w3.org/2000/svg" width="1366" height="414.125" viewBox="0 0 1366 414.125">
  <defs>
    <style>
      .cls-1 {
        fill: #07b5ff;
        fill-rule: evenodd;
      }
    </style>
  </defs>
  <path class="cls-1" d="M-40,486c67.71-106.413,243.983-157.578,480-92,118.64,40.745,241.987,61.105,366,60,150.516-1.342,277.94-33.131,354-66a804.335,804.335,0,0,0,208-131c26.08-.759,51.97,6.365,68,25,25.18,29.264,14.04,76.578,0,110-14.76,35.137-44.34,67.846-104,102-33.82,19.361-66.9,33.244-105.83,46.505-45.42,15.469-91.41,28.515-126.17,34.5-38.67,6.654-85.47,9.527-135.987,9.258C919.853,584.023,872.07,581.145,822,576c-62.356-6.407-121.52-15.084-176-26-54.081-10.836-120.286-28.429-184-46-104.01-28.683-183.066-51.564-244-38C62.4,500.637-14.924,686.827-56,670-84.361,658.382-85.824,558.016-40,486Z" transform="translate(0 -256.938)"/>
</svg>
