<svg width="664" height="961" viewBox="0 0 664 961" fill="none" xmlns="http://www.w3.org/2000/svg">
<path fill-rule="evenodd" clip-rule="evenodd" d="M196 0C192.686 0 190 2.68629 190 6V32H72C66.7534 32 62.5 36.2532 62.5 41.5V482.302C59.1359 484.833 55.7807 487.465 52.4376 490.198C21.1737 515.76 1.98764 540.964 1.18446 542.026C-0.394822 544.12 -0.394822 546.962 1.18446 549.057C1.98764 550.115 21.1737 575.32 52.4376 600.882C70.8746 615.955 89.6786 627.98 108.335 636.625C109.391 637.114 110.445 637.592 111.5 638.06V668.5V747V920.5C111.5 925.747 115.753 930 121 930H351V955C351 958.314 353.686 961 357 961H658C661.314 961 664 958.314 664 955V886C664 882.686 661.314 880 658 880H357C353.686 880 351 882.686 351 886V915H126.5V747V668.5V643.99C134.041 646.609 141.549 648.665 149 650.155V700.5C149 705.747 153.253 710 158.5 710H189V740C189 743.314 191.686 746 195 746H658C661.314 746 664 743.314 664 740V671C664 667.686 661.314 665 658 665H195C191.686 665 189 667.686 189 671V695H164V652.396C168.66 652.853 173.292 653.083 177.89 653.083C200.478 653.083 223.879 647.544 247.445 636.625C266.098 627.98 284.906 615.955 303.34 600.882C314.14 592.052 323.499 583.264 331.157 575.5H622.5C627.747 575.5 632 571.247 632 566V446H658C661.314 446 664 443.314 664 440V371C664 367.686 661.314 365 658 365H280C276.686 365 274 367.686 274 371V440C274 443.314 276.686 446 280 446H617V560.5H345.117C350.975 553.812 354.27 549.482 354.593 549.057C356.175 546.962 356.175 544.12 354.593 542.026C353.792 540.964 334.606 515.76 303.34 490.198C284.906 475.125 266.098 463.1 247.445 454.455C226.342 444.677 205.373 439.216 185 438.181V238H363V262C363 265.314 365.686 268 369 268H658C661.314 268 664 265.314 664 262V193C664 189.686 661.314 187 658 187H369C365.686 187 363 189.686 363 193V223H179.5C174.253 223 170 227.253 170 232.5V438.223C149.872 439.356 129.166 444.802 108.335 454.455C98.0729 459.21 87.766 464.989 77.5 471.735V47H190V74C190 77.3137 192.686 80 196 80H658C661.314 80 664 77.3137 664 74V6C664 2.68629 661.314 0 658 0H196ZM177.893 641.168C203.938 641.168 245.462 632.599 295.386 591.783C312.37 577.845 327.925 562.358 341.844 545.54C327.865 528.657 312.238 513.113 295.181 499.125C267.669 476.675 224.992 449.914 177.896 449.914C151.851 449.914 110.324 458.481 60.4002 499.299C43.4161 513.238 27.8579 528.721 13.9391 545.54C27.918 562.425 43.5484 577.97 60.6077 591.958C88.1174 614.408 130.794 641.168 177.893 641.168ZM102.635 545.54C102.635 505.352 136.329 472.771 177.893 472.771C219.436 472.818 253.1 505.37 253.148 545.54C253.148 585.73 219.454 618.311 177.893 618.311C136.329 618.311 102.635 585.73 102.635 545.54ZM114.956 545.54C114.956 579.151 143.134 606.397 177.893 606.397C212.634 606.359 240.788 579.133 240.827 545.54C240.827 511.932 212.649 484.686 177.893 484.686C143.134 484.686 114.956 511.932 114.956 545.54ZM171.022 516.545C170.189 513.863 166.772 512.613 163.261 512.613C159.841 512.613 156.421 513.863 155.591 516.545L137.755 572.748C137.668 573.042 137.605 573.339 137.572 573.641C137.572 576.501 141.912 578.467 145.149 578.467C147.18 578.467 148.753 577.792 149.213 576.094L152.727 564.156H173.889L177.4 576.094C177.86 577.789 179.433 578.441 181.467 578.441C184.701 578.441 189.041 576.399 189.041 573.63C189.017 573.327 188.954 573.031 188.858 572.743L171.022 516.545ZM155.221 555.22L163.261 527.791L171.299 555.22H155.221ZM204.846 516.723C204.846 514.221 207.572 513.148 210.622 513.148C213.579 513.148 216.398 514.221 216.398 516.723V574.805C216.398 577.216 213.579 578.47 210.622 578.47C207.572 578.47 204.846 577.216 204.846 574.805V516.723Z" fill="url(#paint0_linear)"/>
<defs>
<linearGradient id="paint0_linear" x1="581.488" y1="216.776" x2="581.488" y2="666.588" gradientUnits="userSpaceOnUse">
<stop stop-color="#00EFD1"/>
<stop offset="1" stop-color="#00ACEA"/>
</linearGradient>
</defs>
</svg>
