<svg width="791" height="517" viewBox="0 0 791 517" fill="none" xmlns="http://www.w3.org/2000/svg">
<path fill-rule="evenodd" clip-rule="evenodd" d="M323 0C319.686 0 317 2.68629 317 6V29.5204L232.287 29.5208H179.018C173.771 29.5208 169.518 33.7741 169.518 39.0208V70.0227C149.541 71.2151 128.999 76.6503 108.335 86.2265C89.6786 94.8713 70.8746 106.899 52.4376 121.969C21.1737 147.532 1.98764 172.736 1.18446 173.798C-0.394822 175.892 -0.394822 178.734 1.18446 180.828C1.98764 181.887 21.1737 207.091 52.4376 232.654C70.8746 247.727 89.6786 259.752 108.335 268.397C109.391 268.886 110.445 269.364 111.5 269.832V422C111.5 427.247 115.753 431.5 121 431.5H204.5V476C204.5 481.247 208.753 485.5 214 485.5H478V511C478 514.314 480.686 517 484 517H785C788.314 517 791 514.314 791 511V442C791 438.686 788.314 436 785 436H484C480.686 436 478 438.686 478 442V470.5H219.5V426C219.5 420.753 215.247 416.5 210 416.5H126.5V275.762C143.9 281.803 161.12 284.854 177.89 284.854C179.455 284.854 181.025 284.828 182.598 284.775V322.763C182.598 328.01 186.851 332.263 192.098 332.263H226.432V363.826C226.432 369.073 230.686 373.326 235.932 373.326H316V402C316 405.314 318.686 408 322 408H785C788.314 408 791 405.314 791 402V333C791 329.686 788.314 327 785 327H322C318.686 327 316 329.686 316 333V358.326H241.432V326.763C241.432 321.517 237.179 317.263 231.932 317.263H197.598V283.479C213.974 281.217 230.667 276.171 247.445 268.397C266.098 259.752 284.906 247.727 303.34 232.654C310.793 226.56 317.56 220.487 323.555 214.756H360.072V238.995C360.072 244.241 364.325 248.495 369.572 248.495H401V296C401 299.314 403.686 302 407 302H785C788.314 302 791 299.314 791 296V227C791 223.686 788.314 221 785 221H407C403.686 221 401 223.686 401 227V233.495H375.072V209.256C375.072 204.01 370.818 199.756 365.572 199.756H338.357C348.424 188.936 354.161 181.397 354.593 180.828C356.175 178.734 356.175 175.892 354.593 173.798C354.174 173.242 348.723 166.079 339.143 155.714H367.572L490 155.714V187C490 190.314 492.686 193 496 193H785C788.314 193 791 190.314 791 187V118C791 114.686 788.314 112 785 112H496C492.686 112 490 114.686 490 118V140.714L367.571 140.714H324.438C318.227 134.736 311.161 128.364 303.34 121.969C284.906 106.896 266.098 94.8713 247.445 86.2265C226.176 76.3713 205.042 70.9018 184.518 69.9292V44.5208H232.287L317 44.5204V74C317 77.3137 319.686 80 323 80H785C788.314 80 791 77.3137 791 74V6C791 2.68629 788.314 0 785 0H323ZM177.893 272.94C203.938 272.94 245.462 264.371 295.386 223.555C312.37 209.616 327.925 194.13 341.844 177.312C327.865 160.429 312.238 144.885 295.181 130.896C267.669 108.447 224.992 81.6859 177.896 81.6859C151.851 81.6859 110.324 90.2522 60.4002 131.071C43.4161 145.01 27.8579 160.493 13.9391 177.312C27.918 194.197 43.5484 209.741 60.6077 223.73C88.1174 246.18 130.794 272.94 177.893 272.94ZM102.635 177.312C102.635 137.124 136.329 104.543 177.893 104.543C219.436 104.59 253.1 137.142 253.148 177.312C253.148 217.502 219.454 250.083 177.893 250.083C136.329 250.083 102.635 217.502 102.635 177.312ZM114.956 177.312C114.956 210.922 143.134 238.169 177.893 238.169C212.634 238.131 240.788 210.905 240.827 177.312C240.827 143.704 212.649 116.457 177.893 116.457C143.134 116.457 114.956 143.704 114.956 177.312ZM171.022 148.317C170.189 145.635 166.772 144.384 163.261 144.384C159.841 144.384 156.421 145.635 155.591 148.317L137.755 204.52C137.668 204.814 137.605 205.111 137.572 205.413C137.572 208.272 141.912 210.239 145.149 210.239C147.18 210.239 148.753 209.564 149.213 207.865L152.727 195.928H173.889L177.4 207.865C177.86 209.561 179.433 210.213 181.467 210.213C184.701 210.213 189.041 208.171 189.041 205.402C189.017 205.099 188.954 204.802 188.858 204.514L171.022 148.317ZM155.221 186.992L163.261 159.562L171.299 186.992H155.221ZM204.846 148.494C204.846 145.993 207.572 144.92 210.622 144.92C213.579 144.92 216.398 145.993 216.398 148.494V206.577C216.398 208.988 213.579 210.242 210.622 210.242C207.572 210.242 204.846 208.988 204.846 206.577V148.494Z" fill="url(#paint0_linear)"/>
<defs>
<linearGradient id="paint0_linear" x1="210.621" y1="27.5309" x2="210.621" y2="423.964" gradientUnits="userSpaceOnUse">
<stop stop-color="#00EFD1"/>
<stop offset="1" stop-color="#00ACEA"/>
</linearGradient>
</defs>
</svg>
