<svg width="2145" height="665" viewBox="0 0 2145 665" fill="none" xmlns="http://www.w3.org/2000/svg">
<path fill-rule="evenodd" clip-rule="evenodd" d="M1047.43 40.8676C1194.16 39.9378 1323.52 -9.56552 1465.92 1.65385C1602.69 12.4307 1701.52 55.9529 1757.4 96.8075C1812.92 137.392 1710.08 189.126 1775.76 228.168C1843.9 268.671 2057.69 269.648 2118.31 311.326C2173.61 349.353 2134.73 397.473 2076.69 435.092C2019.08 472.432 1914.1 503.197 1795.02 520.86C1680.31 537.873 1521.12 508.461 1419.85 532.514C1304.39 559.934 1352.65 629.391 1232.13 654.544C1129.46 675.972 983.97 659.693 866.617 647.977C752.67 636.601 655.303 613.147 566.079 588.049C483.159 564.724 411.591 537.411 362.022 506.036C315.447 476.556 339.311 439.393 286.369 411.004C213.967 372.179 8.44462 356.995 0.209552 312.018C-7.36834 270.63 192.734 254.619 250.932 217.454C309.331 180.161 271.485 132.797 337.301 96.7552C406.499 58.8617 500.953 17.4973 635.397 6.91646C774.309 -4.01606 904.292 41.7745 1047.43 40.8676Z" fill="#C4C4C4"/>
</svg>
