<svg width="813" height="868" viewBox="0 0 813 868" fill="none" xmlns="http://www.w3.org/2000/svg">
<path fill-rule="evenodd" clip-rule="evenodd" d="M345.442 -168.904C479.436 -166.357 540.344 -158.841 645 -87.4044C748.359 -16.8537 712.43 184.596 751.5 232C791.526 338.895 851.5 401.6 777.5 510.1C739.5 588.1 674.081 606.683 591 685.5C482.848 755.156 516.478 850.779 381.5 861C240.62 871.668 63.2619 879.248 -47.987 804.737C-156.662 731.95 -212.08 621.185 -258.3 510.1C-305.78 395.983 -354.159 275.984 -316.57 159.214C-278.092 39.6844 -179.21 -63.5755 -53.5831 -125.841C65.2511 -184.74 208.044 -171.517 345.442 -168.904Z" fill="#C4C4C4" fill-opacity="0.68"/>
</svg>
