<svg width="30" height="48" viewBox="0 0 30 48" fill="none" xmlns="http://www.w3.org/2000/svg">
<path d="M4.5 0.5H25.5C27.7082 0.5 29.5 2.29177 29.5 4.5V43.5C29.5 45.7082 27.7082 47.5 25.5 47.5H4.5C2.29177 47.5 0.5 45.7082 0.5 43.5V4.5C0.5 2.29177 2.29177 0.5 4.5 0.5ZM11.5 42C11.5 43.9355 13.0645 45.5 15 45.5C16.9355 45.5 18.5 43.9355 18.5 42C18.5 40.0645 16.9355 38.5 15 38.5C13.0645 38.5 11.5 40.0645 11.5 42Z" fill="white" stroke="#959595"/>
<path d="M19.4088 15.7347C19.521 15.6471 19.6041 15.525 19.6467 15.3855C19.6892 15.2459 19.689 15.0959 19.6461 14.9565C19.6032 14.8171 19.5197 14.6952 19.4074 14.608C19.295 14.5208 19.1595 14.4726 19.0197 14.4702L16.3045 14.3627C16.2912 14.3618 16.2784 14.3568 16.2677 14.3484C16.257 14.34 16.2488 14.3285 16.2442 14.3153L15.306 11.66C15.2588 11.5249 15.1732 11.4083 15.0607 11.3259C14.9482 11.2435 14.8142 11.1993 14.6769 11.1993C14.5397 11.1993 14.4057 11.2435 14.2932 11.3259C14.1807 11.4083 14.0951 11.5249 14.0479 11.66L13.1127 14.3248C13.1081 14.338 13.0999 14.3495 13.0892 14.3579C13.0785 14.3663 13.0657 14.3713 13.0524 14.3722L10.3373 14.4797C10.1975 14.4821 10.0619 14.5303 9.94953 14.6175C9.83718 14.7047 9.7537 14.8265 9.71078 14.966C9.66787 15.1054 9.66768 15.2554 9.71023 15.395C9.75279 15.5345 9.83596 15.6566 9.94808 15.7441L12.078 17.4985C12.0886 17.5073 12.0966 17.5192 12.1009 17.5327C12.1052 17.5462 12.1056 17.5607 12.1021 17.5744L11.369 20.2961C11.331 20.4347 11.3347 20.5822 11.3795 20.7185C11.4244 20.8548 11.5082 20.9734 11.6197 21.058C11.7311 21.1426 11.8647 21.1892 12.0023 21.1915C12.1399 21.1937 12.2748 21.1515 12.3887 21.0706L14.6392 19.49C14.6503 19.482 14.6635 19.4777 14.6769 19.4777C14.6904 19.4777 14.7036 19.482 14.7147 19.49L16.9652 21.0706C17.0776 21.1543 17.212 21.1993 17.3498 21.1993C17.4877 21.1993 17.6221 21.1543 17.7345 21.0706C17.8459 20.9867 17.9299 20.8688 17.9747 20.7329C18.0195 20.597 18.0231 20.45 17.9849 20.3119L17.2458 17.5807C17.2419 17.567 17.2421 17.5524 17.2464 17.5388C17.2507 17.5252 17.2589 17.5134 17.2699 17.5049L19.4088 15.7347Z" fill="#959595"/>
<path d="M22.25 9.02C21.7763 8.40071 20.9868 8 20.1053 8L5.63158 8.01214C4.18421 8.01214 3 9.09286 3 10.4286V22.5714C3 23.9071 4.18421 24.9879 5.63158 24.9879L20.1053 25C20.9868 25 21.7763 24.5993 22.25 23.98L28 16.5L22.25 9.02ZM20.1053 22.5714H5.63158V10.4286H20.1053L24.7763 16.5L20.1053 22.5714Z" fill="#959595"/>
</svg>
